<svg width="600" height="700" viewBox="0 0 600 700" fill="none" xmlns="http://www.w3.org/2000/svg">
<g clip-path="url(#clip0_11_2)">
<path d="M163.55 238.3C163.55 238.351 163.562 238.402 163.584 238.448C163.607 238.495 163.64 238.535 163.68 238.567C163.72 238.599 163.767 238.621 163.818 238.632C163.868 238.643 163.92 238.642 163.97 238.63L198.08 230.39C198.13 230.378 198.182 230.377 198.232 230.388C198.283 230.399 198.33 230.421 198.37 230.453C198.41 230.485 198.443 230.525 198.466 230.572C198.488 230.618 198.5 230.669 198.5 230.72V338.65C198.5 338.695 198.509 338.739 198.526 338.78C198.543 338.821 198.568 338.859 198.6 338.89C198.631 338.922 198.669 338.947 198.71 338.964C198.751 338.981 198.795 338.99 198.84 338.99L231.41 339.02C231.5 339.02 231.587 338.984 231.65 338.92C231.714 338.857 231.75 338.77 231.75 338.68V195.55C231.75 195.5 231.738 195.45 231.716 195.405C231.694 195.359 231.662 195.319 231.623 195.288C231.584 195.256 231.538 195.234 231.489 195.222C231.44 195.21 231.389 195.21 231.34 195.22L163.75 208.65C163.674 208.666 163.606 208.707 163.557 208.767C163.508 208.827 163.481 208.902 163.48 208.98L163.55 238.3Z" stroke="#B19CDF" stroke-width="2"/>
<path d="M255.12 298.65C263.66 328.88 290.03 346.16 321.43 340.62C366.23 332.7 373.4 279.94 365.82 243.58C359.75 214.48 339.14 194.84 308.97 195.26C254.73 196.02 243.48 257.44 255.12 298.65Z" stroke="#B19CDF" stroke-width="2"/>
<path d="M396.5 231.24C396.5 231.375 396.446 231.505 396.351 231.601C396.255 231.696 396.125 231.75 395.99 231.75H374.01C373.875 231.75 373.745 231.804 373.649 231.899C373.554 231.995 373.5 232.125 373.5 232.26V248.49C373.5 248.625 373.554 248.755 373.649 248.851C373.745 248.946 373.875 249 374.01 249H395.99C396.125 249 396.255 249.054 396.351 249.149C396.446 249.245 396.5 249.375 396.5 249.51V271.74C396.5 271.875 396.554 272.005 396.649 272.101C396.745 272.196 396.875 272.25 397.01 272.25H414.49C414.625 272.25 414.755 272.196 414.851 272.101C414.946 272.005 415 271.875 415 271.74V249.51C415 249.375 415.054 249.245 415.149 249.149C415.245 249.054 415.375 249 415.51 249H437.24C437.375 249 437.505 248.946 437.601 248.851C437.696 248.755 437.75 248.625 437.75 248.49V232.26C437.75 232.125 437.696 231.995 437.601 231.899C437.505 231.804 437.375 231.75 437.24 231.75H415.51C415.375 231.75 415.245 231.696 415.149 231.601C415.054 231.505 415 231.375 415 231.24V208.76C415 208.625 414.946 208.495 414.851 208.399C414.755 208.304 414.625 208.25 414.49 208.25H397.01C396.875 208.25 396.745 208.304 396.649 208.399C396.554 208.495 396.5 208.625 396.5 208.76V231.24Z" stroke="#B19CDF" stroke-width="2"/>
<path d="M259.66 420.5C259.719 420.499 259.777 420.516 259.827 420.548C259.877 420.58 259.916 420.626 259.94 420.68L264.44 430.82C264.464 430.874 264.503 430.92 264.553 430.952C264.603 430.984 264.661 431.001 264.72 431H271.93C271.981 431 272.031 430.987 272.075 430.962C272.119 430.938 272.157 430.902 272.184 430.86C272.211 430.817 272.226 430.767 272.229 430.717C272.232 430.666 272.222 430.616 272.2 430.57L252.58 388C252.555 387.949 252.517 387.907 252.469 387.877C252.422 387.847 252.366 387.831 252.31 387.831C252.254 387.831 252.198 387.847 252.151 387.877C252.103 387.907 252.065 387.949 252.04 388L232.36 430.57C232.338 430.616 232.328 430.666 232.331 430.717C232.334 430.767 232.349 430.817 232.376 430.86C232.403 430.902 232.441 430.938 232.485 430.962C232.529 430.987 232.579 431 232.63 431H239.85C239.909 431.001 239.967 430.984 240.017 430.952C240.067 430.92 240.106 430.874 240.13 430.82L244.6 420.68C244.624 420.626 244.663 420.58 244.713 420.548C244.763 420.516 244.821 420.499 244.88 420.5H259.66Z" stroke="#B19CDF" stroke-width="2"/>
<path d="M316.96 408.78C320.76 411.94 326.46 412.98 329.32 414.93C336.54 419.85 329.81 428.44 321.88 424.48C319.2 423.147 317.167 421.04 315.78 418.16C315.58 417.753 315.293 417.68 314.92 417.94L310.59 420.95C310.297 421.15 310.23 421.413 310.39 421.74C314.61 430.21 325.51 435.16 333.88 429.65C340.36 425.38 341.78 416.68 335.91 411.08C331.74 407.11 315.84 405.02 320.92 396.84C321.107 396.54 321.36 396.327 321.68 396.2C327.01 394.04 330.41 396.33 333.33 400.6C333.53 400.893 333.787 400.953 334.1 400.78L338.79 398.22C339.123 398.04 339.2 397.78 339.02 397.44C329.14 378.75 300.93 395.5 316.96 408.78Z" stroke="#B19CDF" stroke-width="2"/>
<path d="M404.09 410.49C404.09 407.668 403.534 404.873 402.454 402.266C401.374 399.659 399.791 397.29 397.796 395.294C395.8 393.299 393.431 391.716 390.824 390.636C388.217 389.556 385.422 389 382.6 389C379.778 389 376.983 389.556 374.376 390.636C371.769 391.716 369.4 393.299 367.404 395.294C365.409 397.29 363.826 399.659 362.746 402.266C361.666 404.873 361.11 407.668 361.11 410.49C361.11 416.189 363.374 421.656 367.404 425.686C371.434 429.716 376.901 431.98 382.6 431.98C388.3 431.98 393.766 429.716 397.796 425.686C401.826 421.656 404.09 416.189 404.09 410.49Z" stroke="#B19CDF" stroke-width="2"/>
<path d="M180.26 406.75L171.35 390.19C171.197 389.897 170.957 389.75 170.63 389.75H163.76C163.353 389.75 163.25 389.927 163.45 390.28C167.423 397.293 171.503 404.27 175.69 411.21C178.11 415.21 177.07 425.56 176.95 430.39C176.937 430.797 177.137 431 177.55 431H183.72C184.133 431 184.333 430.793 184.32 430.38C184.15 425.52 183.15 415.34 185.62 411.24C189.767 404.347 193.837 397.387 197.83 390.36C198.063 389.953 197.947 389.75 197.48 389.75H190.77C190.41 389.75 190.147 389.907 189.98 390.22L181.02 406.75C180.767 407.217 180.513 407.217 180.26 406.75Z" stroke="#B19CDF" stroke-width="2"/>
<path d="M210.5 412.39C210.5 412.287 210.541 412.187 210.614 412.114C210.687 412.041 210.787 412 210.89 412H227.11C227.213 412 227.313 411.959 227.386 411.886C227.459 411.813 227.5 411.713 227.5 411.61V406.39C227.5 406.287 227.459 406.187 227.386 406.114C227.313 406.041 227.213 406 227.11 406H210.89C210.787 406 210.687 405.959 210.614 405.886C210.541 405.813 210.5 405.713 210.5 405.61V396.39C210.5 396.287 210.541 396.187 210.614 396.114C210.687 396.041 210.787 396 210.89 396H228.36C228.463 396 228.563 395.959 228.636 395.886C228.709 395.813 228.75 395.713 228.75 395.61V390.14C228.75 390.037 228.709 389.937 228.636 389.864C228.563 389.791 228.463 389.75 228.36 389.75H203.89C203.787 389.75 203.687 389.791 203.614 389.864C203.541 389.937 203.5 390.037 203.5 390.14V430.61C203.5 430.713 203.541 430.813 203.614 430.886C203.687 430.959 203.787 431 203.89 431H228.36C228.463 431 228.563 430.959 228.636 430.886C228.709 430.813 228.75 430.713 228.75 430.61V425.39C228.75 425.287 228.709 425.187 228.636 425.114C228.563 425.041 228.463 425 228.36 425H210.89C210.787 425 210.687 424.959 210.614 424.886C210.541 424.813 210.5 424.713 210.5 424.61V412.39Z" stroke="#B19CDF" stroke-width="2"/>
<path d="M285 415.5H288.2C288.613 415.5 288.937 415.673 289.17 416.02L298.87 430.55C299.07 430.85 299.35 431 299.71 431H307C307.44 431 307.533 430.82 307.28 430.46L296.31 415.17C296.267 415.112 296.238 415.045 296.226 414.973C296.215 414.902 296.22 414.829 296.243 414.76C296.266 414.692 296.304 414.629 296.356 414.579C296.408 414.528 296.471 414.491 296.54 414.47C306.29 411.31 308.32 397.76 299.68 392.25C294.44 388.91 284.27 389.41 278.05 389.89C277.683 389.917 277.5 390.113 277.5 390.48V430.25C277.5 430.75 277.75 431 278.25 431H283.75C284.25 431 284.5 430.75 284.5 430.25V416C284.5 415.667 284.667 415.5 285 415.5Z" stroke="#B19CDF" stroke-width="2"/>
<path d="M417.5 412.9C417.5 412.794 417.542 412.692 417.617 412.617C417.692 412.542 417.794 412.5 417.9 412.5H432.35C432.456 412.5 432.558 412.458 432.633 412.383C432.708 412.308 432.75 412.206 432.75 412.1V406.65C432.75 406.544 432.708 406.442 432.633 406.367C432.558 406.292 432.456 406.25 432.35 406.25H417.9C417.794 406.25 417.692 406.208 417.617 406.133C417.542 406.058 417.5 405.956 417.5 405.85V396.4C417.5 396.294 417.542 396.192 417.617 396.117C417.692 396.042 417.794 396 417.9 396H432.8C432.904 396 433.005 395.959 433.079 395.886C433.154 395.814 433.197 395.714 433.2 395.61L433.37 390.16C433.371 390.107 433.362 390.054 433.342 390.004C433.323 389.954 433.294 389.909 433.256 389.871C433.219 389.832 433.175 389.802 433.125 389.781C433.076 389.761 433.023 389.75 432.97 389.75H410.9C410.794 389.75 410.692 389.792 410.617 389.867C410.542 389.942 410.5 390.044 410.5 390.15V430.6C410.5 430.706 410.542 430.808 410.617 430.883C410.692 430.958 410.794 431 410.9 431H417.1C417.206 431 417.308 430.958 417.383 430.883C417.458 430.808 417.5 430.706 417.5 430.6V412.9Z" stroke="#B19CDF" stroke-width="2"/>
<path d="M362.5 475.23C362.5 475.168 362.519 475.107 362.554 475.055C362.588 475.003 362.637 474.962 362.695 474.938C362.752 474.914 362.815 474.906 362.877 474.917C362.938 474.928 362.995 474.957 363.04 475L391.97 503.58C392.015 503.626 392.072 503.658 392.136 503.671C392.199 503.684 392.264 503.678 392.324 503.653C392.383 503.628 392.433 503.586 392.469 503.532C392.504 503.478 392.522 503.414 392.52 503.35L392.49 461C392.49 460.915 392.456 460.834 392.396 460.774C392.336 460.714 392.255 460.68 392.17 460.68L386.06 460.77C385.977 460.773 385.898 460.807 385.84 460.867C385.782 460.927 385.75 461.007 385.75 461.09V487.78C385.75 487.842 385.731 487.903 385.696 487.955C385.662 488.007 385.613 488.048 385.555 488.072C385.498 488.096 385.435 488.104 385.373 488.093C385.312 488.082 385.255 488.053 385.21 488.01L356.02 459.2C355.975 459.154 355.918 459.122 355.854 459.109C355.791 459.096 355.726 459.102 355.666 459.127C355.607 459.152 355.557 459.194 355.521 459.248C355.486 459.302 355.468 459.366 355.47 459.43L355.51 501.68C355.51 501.765 355.544 501.846 355.604 501.906C355.664 501.966 355.745 502 355.83 502H362.18C362.265 502 362.346 501.966 362.406 501.906C362.466 501.846 362.5 501.765 362.5 501.68V475.23Z" stroke="#B19CDF" stroke-width="2"/>
<path d="M400.95 472.66C392.74 493.76 414.17 510.25 433.14 499.07C433.507 498.85 433.693 498.527 433.7 498.1L433.78 491.02C433.787 490.387 433.56 490.29 433.1 490.73C426.65 496.99 416.29 498.16 410.16 491.01C405.73 485.84 405.61 477.24 409.95 472.06C416.1 464.72 426.58 465.7 433.18 472.23C433.56 472.61 433.75 472.53 433.75 471.99V464.76C433.75 464.413 433.603 464.143 433.31 463.95C422.48 456.86 405.92 459.87 400.95 472.66Z" stroke="#B19CDF" stroke-width="2"/>
<path d="M140.5 483.3C140.5 483.22 140.532 483.144 140.588 483.088C140.644 483.032 140.72 483 140.8 483H157.2C157.28 483 157.356 482.968 157.412 482.912C157.468 482.856 157.5 482.78 157.5 482.7V477.3C157.5 477.22 157.468 477.144 157.412 477.088C157.356 477.032 157.28 477 157.2 477H140.8C140.72 477 140.644 476.968 140.588 476.912C140.532 476.856 140.5 476.78 140.5 476.7V467.3C140.5 467.22 140.532 467.144 140.588 467.088C140.644 467.032 140.72 467 140.8 467H158.45C158.489 467 158.528 466.992 158.565 466.977C158.601 466.962 158.634 466.94 158.662 466.912C158.69 466.884 158.712 466.851 158.727 466.815C158.742 466.778 158.75 466.739 158.75 466.7V461.04C158.75 461.001 158.742 460.962 158.727 460.925C158.712 460.889 158.69 460.856 158.662 460.828C158.634 460.8 158.601 460.778 158.565 460.763C158.528 460.748 158.489 460.74 158.45 460.74H133.8C133.761 460.74 133.722 460.748 133.685 460.763C133.649 460.778 133.616 460.8 133.588 460.828C133.56 460.856 133.538 460.889 133.523 460.925C133.508 460.962 133.5 461.001 133.5 461.04V501.7C133.5 501.739 133.508 501.778 133.523 501.815C133.538 501.851 133.56 501.884 133.588 501.912C133.616 501.94 133.649 501.962 133.685 501.977C133.722 501.992 133.761 502 133.8 502H158.45C158.489 502 158.528 501.992 158.565 501.977C158.601 501.962 158.634 501.94 158.662 501.912C158.69 501.884 158.712 501.851 158.727 501.815C158.742 501.778 158.75 501.739 158.75 501.7V496.3C158.75 496.261 158.742 496.222 158.727 496.185C158.712 496.149 158.69 496.116 158.662 496.088C158.634 496.06 158.601 496.038 158.565 496.023C158.528 496.008 158.489 496 158.45 496H140.8C140.761 496 140.722 495.992 140.685 495.977C140.649 495.962 140.616 495.94 140.588 495.912C140.56 495.884 140.538 495.851 140.523 495.815C140.508 495.778 140.5 495.739 140.5 495.7V483.3Z" stroke="#B19CDF" stroke-width="2"/>
<path d="M244.5 483.34C244.5 483.295 244.509 483.251 244.526 483.21C244.543 483.169 244.568 483.131 244.6 483.1C244.631 483.068 244.669 483.043 244.71 483.026C244.751 483.009 244.795 483 244.84 483H261.16C261.25 483 261.337 482.964 261.4 482.9C261.464 482.837 261.5 482.75 261.5 482.66V477.34C261.5 477.25 261.464 477.163 261.4 477.1C261.337 477.036 261.25 477 261.16 477H244.84C244.795 477 244.751 476.991 244.71 476.974C244.669 476.957 244.631 476.932 244.6 476.9C244.568 476.869 244.543 476.831 244.526 476.79C244.509 476.749 244.5 476.705 244.5 476.66V467.34C244.5 467.25 244.536 467.163 244.6 467.1C244.663 467.036 244.75 467 244.84 467H262.41C262.5 467 262.587 466.964 262.65 466.9C262.714 466.837 262.75 466.75 262.75 466.66V461.09C262.75 461 262.714 460.913 262.65 460.85C262.587 460.786 262.5 460.75 262.41 460.75L237.84 460.74C237.75 460.74 237.663 460.776 237.6 460.84C237.536 460.903 237.5 460.99 237.5 461.08V501.66C237.5 501.75 237.536 501.837 237.6 501.9C237.663 501.964 237.75 502 237.84 502H262.41C262.5 502 262.587 501.964 262.65 501.9C262.714 501.837 262.75 501.75 262.75 501.66V496.34C262.75 496.25 262.714 496.163 262.65 496.1C262.587 496.036 262.5 496 262.41 496H244.84C244.795 496 244.751 495.991 244.71 495.974C244.669 495.957 244.631 495.932 244.6 495.9C244.568 495.869 244.543 495.831 244.526 495.79C244.509 495.749 244.5 495.705 244.5 495.66V483.34Z" stroke="#B19CDF" stroke-width="2"/>
<path d="M312.5 460.98C312.5 460.911 312.473 460.845 312.424 460.796C312.375 460.747 312.309 460.72 312.24 460.72H305.76C305.691 460.72 305.625 460.747 305.576 460.796C305.527 460.845 305.5 460.911 305.5 460.98V501.74C305.5 501.809 305.527 501.875 305.576 501.924C305.625 501.973 305.691 502 305.76 502H312.24C312.309 502 312.375 501.973 312.424 501.924C312.473 501.875 312.5 501.809 312.5 501.74V460.98Z" stroke="#B19CDF" stroke-width="2"/>
<path d="M328.82 496C328.735 496 328.654 495.966 328.594 495.906C328.534 495.846 328.5 495.765 328.5 495.68V483.32C328.5 483.235 328.534 483.154 328.594 483.094C328.654 483.034 328.735 483 328.82 483H345.15C345.235 483 345.316 482.966 345.376 482.906C345.436 482.846 345.47 482.765 345.47 482.68L345.55 477.32C345.55 477.235 345.516 477.154 345.456 477.094C345.396 477.034 345.315 477 345.23 477H328.82C328.735 477 328.654 476.966 328.594 476.906C328.534 476.846 328.5 476.765 328.5 476.68V467.32C328.5 467.235 328.534 467.154 328.594 467.094C328.654 467.034 328.735 467 328.82 467H346.43C346.515 467 346.596 466.966 346.656 466.906C346.716 466.846 346.75 466.765 346.75 466.68V461.07C346.75 460.985 346.716 460.904 346.656 460.844C346.596 460.784 346.515 460.75 346.43 460.75H321.82C321.735 460.75 321.654 460.784 321.594 460.844C321.534 460.904 321.5 460.985 321.5 461.07V501.68C321.5 501.765 321.534 501.846 321.594 501.906C321.654 501.966 321.735 502 321.82 502H346.43C346.515 502 346.596 501.966 346.656 501.906C346.716 501.846 346.75 501.765 346.75 501.68V496.32C346.75 496.235 346.716 496.154 346.656 496.094C346.596 496.034 346.515 496 346.43 496H328.82Z" stroke="#B19CDF" stroke-width="2"/>
<path d="M448.82 477C448.735 477 448.654 476.966 448.594 476.906C448.534 476.846 448.5 476.765 448.5 476.68V467.32C448.5 467.235 448.534 467.154 448.594 467.094C448.654 467.034 448.735 467 448.82 467H466.43C466.515 467 466.596 466.966 466.656 466.906C466.716 466.846 466.75 466.765 466.75 466.68V461.07C466.75 460.985 466.716 460.904 466.656 460.844C466.596 460.784 466.515 460.75 466.43 460.75L441.82 460.74C441.735 460.74 441.654 460.774 441.594 460.834C441.534 460.894 441.5 460.975 441.5 461.06V501.68C441.5 501.765 441.534 501.846 441.594 501.906C441.654 501.966 441.735 502 441.82 502H466.43C466.515 502 466.596 501.966 466.656 501.906C466.716 501.846 466.75 501.765 466.75 501.68V496.32C466.75 496.235 466.716 496.154 466.656 496.094C466.596 496.034 466.515 496 466.43 496H448.82C448.735 496 448.654 495.966 448.594 495.906C448.534 495.846 448.5 495.765 448.5 495.68V483.32C448.5 483.235 448.534 483.154 448.594 483.094C448.654 483.034 448.735 483 448.82 483H465.15C465.235 483 465.316 482.966 465.376 482.906C465.436 482.846 465.47 482.765 465.47 482.68L465.55 477.32C465.55 477.235 465.516 477.154 465.456 477.094C465.396 477.034 465.315 477 465.23 477H448.82Z" stroke="#B19CDF" stroke-width="2"/>
<path d="M181.35 474.22C181.322 474.27 181.282 474.312 181.233 474.341C181.183 474.37 181.127 474.385 181.07 474.385C181.013 474.385 180.957 474.37 180.907 474.341C180.858 474.312 180.818 474.27 180.79 474.22L173.39 460.91C173.362 460.861 173.321 460.82 173.272 460.792C173.222 460.764 173.167 460.75 173.11 460.75H165.42C165.363 460.75 165.307 460.766 165.258 460.795C165.209 460.824 165.168 460.866 165.141 460.916C165.113 460.966 165.1 461.022 165.101 461.079C165.103 461.136 165.12 461.192 165.15 461.24L176.99 480.44C177.022 480.491 177.039 480.55 177.039 480.61C177.039 480.67 177.022 480.729 176.99 480.78L163.72 501.51C163.69 501.558 163.673 501.612 163.671 501.669C163.669 501.725 163.682 501.781 163.708 501.83C163.735 501.88 163.774 501.922 163.821 501.952C163.869 501.981 163.924 501.998 163.98 502H171.76C171.817 502.001 171.872 501.986 171.922 501.958C171.971 501.93 172.012 501.889 172.04 501.84L180.72 486.74C180.748 486.69 180.788 486.648 180.837 486.619C180.887 486.59 180.943 486.575 181 486.575C181.057 486.575 181.113 486.59 181.163 486.619C181.212 486.648 181.252 486.69 181.28 486.74L189.69 501.84C189.718 501.889 189.759 501.93 189.808 501.958C189.858 501.986 189.913 502.001 189.97 502H197.75C197.807 502 197.863 501.984 197.912 501.955C197.961 501.926 198.002 501.884 198.029 501.834C198.057 501.784 198.07 501.728 198.069 501.671C198.067 501.614 198.05 501.558 198.02 501.51L185.07 480.79C185.038 480.739 185.021 480.68 185.021 480.62C185.021 480.56 185.038 480.501 185.07 480.45L197.15 461.24C197.18 461.192 197.197 461.136 197.199 461.079C197.2 461.022 197.187 460.966 197.159 460.916C197.132 460.866 197.091 460.824 197.042 460.795C196.993 460.766 196.937 460.75 196.88 460.75H189.16C189.103 460.75 189.048 460.764 188.998 460.792C188.949 460.82 188.908 460.861 188.88 460.91L181.35 474.22Z" stroke="#B19CDF" stroke-width="2"/>
<path d="M211.14 486.4C219.05 487.28 228.53 485.58 230.52 476.42C232.12 469.07 227.36 462.35 219.93 461.12C215.95 460.45 209.12 460.66 203.97 460.78C203.657 460.787 203.5 460.947 203.5 461.26V501.5C203.5 501.833 203.667 502 204 502H210C210.333 502 210.5 501.833 210.5 501.5V486.97C210.5 486.543 210.713 486.353 211.14 486.4Z" stroke="#B19CDF" stroke-width="2"/>
<path d="M278 486.5H281.27C281.623 486.5 281.9 486.647 282.1 486.94L291.84 501.49C292.067 501.83 292.383 502 292.79 502H299.91C300.39 502 300.49 501.803 300.21 501.41L289.33 486.17C289.077 485.817 289.153 485.57 289.56 485.43C294.66 483.65 297.47 480.263 297.99 475.27C299.67 459.18 281.2 460.13 271.05 460.88C270.683 460.907 270.5 461.107 270.5 461.48V501.25C270.5 501.75 270.75 502 271.25 502H276.87C277.29 502 277.5 501.79 277.5 501.37V487C277.5 486.667 277.667 486.5 278 486.5Z" stroke="#B19CDF" stroke-width="2"/>
<path d="M286.99 290.49C289.77 300.79 297.46 311.96 309.03 312.28C343.33 313.22 343.78 230.14 313.25 224.96C298.13 222.4 289.35 236.05 286.37 248.57C283.03 262.617 283.237 276.59 286.99 290.49Z" stroke="#B19CDF" stroke-width="2"/>
<path d="M247 414.04C246.98 414.087 246.973 414.137 246.977 414.188C246.982 414.238 246.998 414.287 247.026 414.329C247.054 414.372 247.091 414.407 247.136 414.431C247.18 414.456 247.229 414.469 247.28 414.47L257.21 414.52C257.261 414.521 257.312 414.509 257.358 414.485C257.403 414.461 257.442 414.426 257.471 414.383C257.5 414.341 257.518 414.292 257.523 414.24C257.528 414.189 257.52 414.137 257.5 414.09L252.6 402.34C252.576 402.284 252.536 402.237 252.486 402.203C252.435 402.17 252.376 402.152 252.315 402.152C252.254 402.152 252.195 402.17 252.144 402.203C252.094 402.237 252.054 402.284 252.03 402.34L247 414.04Z" stroke="#B19CDF" stroke-width="2"/>
<path d="M382.447 425.049C386.159 425.088 389.736 423.582 392.39 420.862C395.045 418.142 396.559 414.432 396.599 410.547C396.64 406.661 395.204 402.92 392.607 400.145C390.011 397.37 386.466 395.79 382.753 395.751C379.041 395.712 375.464 397.218 372.81 399.938C370.155 402.658 368.641 406.368 368.601 410.253C368.56 414.139 369.996 417.88 372.593 420.655C375.189 423.43 378.734 425.01 382.447 425.049Z" stroke="#B19CDF" stroke-width="2"/>
<path d="M284.51 396.46L284.47 409.1C284.47 409.233 284.523 409.36 284.616 409.454C284.71 409.547 284.837 409.6 284.97 409.6L290.33 409.62C291.305 409.623 292.271 409.463 293.172 409.148C294.074 408.833 294.893 408.37 295.584 407.785C296.275 407.199 296.824 406.504 297.199 405.738C297.574 404.972 297.768 404.15 297.77 403.32V402.32C297.774 400.645 296.997 399.036 295.609 397.847C294.222 396.658 292.337 395.986 290.37 395.98L285.01 395.96C284.877 395.96 284.75 396.013 284.656 396.106C284.563 396.2 284.51 396.327 284.51 396.46Z" stroke="#B19CDF" stroke-width="2"/>
<path d="M210.51 467.73L210.47 479.49C210.47 479.681 210.546 479.864 210.681 479.999C210.816 480.134 210.999 480.21 211.19 480.21L216.51 480.23C217.461 480.233 218.404 480.078 219.283 479.774C220.163 479.469 220.963 479.022 221.637 478.456C222.311 477.891 222.847 477.218 223.213 476.478C223.579 475.737 223.768 474.943 223.77 474.14V473.16C223.774 471.54 223.016 469.985 221.662 468.835C220.308 467.686 218.469 467.036 216.55 467.03L211.23 467.01C211.039 467.01 210.856 467.086 210.721 467.221C210.586 467.356 210.51 467.539 210.51 467.73Z" stroke="#B19CDF" stroke-width="2"/>
<path d="M277.47 467.52L277.51 480.12C277.51 480.255 277.564 480.385 277.659 480.481C277.755 480.576 277.885 480.63 278.02 480.63L283.53 480.61C285.455 480.604 287.299 479.932 288.656 478.744C290.014 477.555 290.774 475.946 290.77 474.27V473.29C290.768 472.46 290.578 471.638 290.211 470.872C289.844 470.106 289.307 469.411 288.631 468.826C287.955 468.241 287.153 467.777 286.271 467.462C285.389 467.147 284.444 466.987 283.49 466.99L277.98 467.01C277.845 467.01 277.715 467.064 277.619 467.159C277.524 467.255 277.47 467.385 277.47 467.52Z" stroke="#B19CDF" stroke-width="2"/>
<path d="M0 0H600V700H0V0ZM163.55 238.3C163.55 238.351 163.562 238.402 163.584 238.448C163.607 238.495 163.64 238.535 163.68 238.567C163.72 238.599 163.767 238.621 163.818 238.632C163.868 238.643 163.92 238.642 163.97 238.63L198.08 230.39C198.13 230.378 198.182 230.377 198.232 230.388C198.283 230.399 198.33 230.421 198.37 230.453C198.41 230.485 198.443 230.525 198.466 230.572C198.488 230.618 198.5 230.669 198.5 230.72V338.65C198.5 338.695 198.509 338.739 198.526 338.78C198.543 338.821 198.568 338.859 198.6 338.89C198.631 338.922 198.669 338.947 198.71 338.964C198.751 338.981 198.795 338.99 198.84 338.99L231.41 339.02C231.5 339.02 231.587 338.984 231.65 338.92C231.714 338.857 231.75 338.77 231.75 338.68V195.55C231.75 195.5 231.738 195.45 231.716 195.405C231.694 195.359 231.662 195.319 231.623 195.288C231.584 195.256 231.538 195.234 231.489 195.222C231.44 195.21 231.389 195.21 231.34 195.22L163.75 208.65C163.674 208.666 163.606 208.707 163.557 208.767C163.508 208.827 163.481 208.902 163.48 208.98L163.55 238.3ZM255.12 298.65C263.66 328.88 290.03 346.16 321.43 340.62C366.23 332.7 373.4 279.94 365.82 243.58C359.75 214.48 339.14 194.84 308.97 195.26C254.73 196.02 243.48 257.44 255.12 298.65ZM396.5 231.24C396.5 231.375 396.446 231.505 396.351 231.601C396.255 231.696 396.125 231.75 395.99 231.75H374.01C373.875 231.75 373.745 231.804 373.649 231.899C373.554 231.995 373.5 232.125 373.5 232.26V248.49C373.5 248.625 373.554 248.755 373.649 248.851C373.745 248.946 373.875 249 374.01 249H395.99C396.125 249 396.255 249.054 396.351 249.149C396.446 249.245 396.5 249.375 396.5 249.51V271.74C396.5 271.875 396.554 272.005 396.649 272.101C396.745 272.196 396.875 272.25 397.01 272.25H414.49C414.625 272.25 414.755 272.196 414.851 272.101C414.946 272.005 415 271.875 415 271.74V249.51C415 249.375 415.054 249.245 415.149 249.149C415.245 249.054 415.375 249 415.51 249H437.24C437.375 249 437.505 248.946 437.601 248.851C437.696 248.755 437.75 248.625 437.75 248.49V232.26C437.75 232.125 437.696 231.995 437.601 231.899C437.505 231.804 437.375 231.75 437.24 231.75H415.51C415.375 231.75 415.245 231.696 415.149 231.601C415.054 231.505 415 231.375 415 231.24V208.76C415 208.625 414.946 208.495 414.851 208.399C414.755 208.304 414.625 208.25 414.49 208.25H397.01C396.875 208.25 396.745 208.304 396.649 208.399C396.554 208.495 396.5 208.625 396.5 208.76V231.24ZM259.66 420.5C259.719 420.499 259.777 420.516 259.827 420.548C259.877 420.58 259.916 420.626 259.94 420.68L264.44 430.82C264.464 430.874 264.503 430.92 264.553 430.952C264.603 430.984 264.661 431.001 264.72 431H271.93C271.981 431 272.031 430.987 272.075 430.962C272.119 430.938 272.157 430.902 272.184 430.86C272.211 430.817 272.226 430.767 272.229 430.717C272.232 430.666 272.222 430.616 272.2 430.57L252.58 388C252.555 387.949 252.517 387.907 252.469 387.877C252.422 387.847 252.366 387.831 252.31 387.831C252.254 387.831 252.198 387.847 252.151 387.877C252.103 387.907 252.065 387.949 252.04 388L232.36 430.57C232.338 430.616 232.328 430.666 232.331 430.717C232.334 430.767 232.349 430.817 232.376 430.86C232.403 430.902 232.441 430.938 232.485 430.962C232.529 430.987 232.579 431 232.63 431H239.85C239.909 431.001 239.967 430.984 240.017 430.952C240.067 430.92 240.106 430.874 240.13 430.82L244.6 420.68C244.624 420.626 244.663 420.58 244.713 420.548C244.763 420.516 244.821 420.499 244.88 420.5H259.66ZM316.96 408.78C320.76 411.94 326.46 412.98 329.32 414.93C336.54 419.85 329.81 428.44 321.88 424.48C319.2 423.147 317.167 421.04 315.78 418.16C315.58 417.753 315.293 417.68 314.92 417.94L310.59 420.95C310.297 421.15 310.23 421.413 310.39 421.74C314.61 430.21 325.51 435.16 333.88 429.65C340.36 425.38 341.78 416.68 335.91 411.08C331.74 407.11 315.84 405.02 320.92 396.84C321.107 396.54 321.36 396.327 321.68 396.2C327.01 394.04 330.41 396.33 333.33 400.6C333.53 400.893 333.787 400.953 334.1 400.78L338.79 398.22C339.123 398.04 339.2 397.78 339.02 397.44C329.14 378.75 300.93 395.5 316.96 408.78ZM404.09 410.49C404.09 407.668 403.534 404.873 402.454 402.266C401.374 399.659 399.791 397.29 397.796 395.294C395.8 393.299 393.431 391.716 390.824 390.636C388.217 389.556 385.422 389 382.6 389C379.778 389 376.983 389.556 374.376 390.636C371.769 391.716 369.4 393.299 367.404 395.294C365.409 397.29 363.826 399.659 362.746 402.266C361.666 404.873 361.11 407.668 361.11 410.49C361.11 416.189 363.374 421.656 367.404 425.686C371.434 429.716 376.901 431.98 382.6 431.98C388.3 431.98 393.766 429.716 397.796 425.686C401.826 421.656 404.09 416.189 404.09 410.49ZM180.26 406.75L171.35 390.19C171.197 389.897 170.957 389.75 170.63 389.75H163.76C163.353 389.75 163.25 389.927 163.45 390.28C167.423 397.293 171.503 404.27 175.69 411.21C178.11 415.21 177.07 425.56 176.95 430.39C176.937 430.797 177.137 431 177.55 431H183.72C184.133 431 184.333 430.793 184.32 430.38C184.15 425.52 183.15 415.34 185.62 411.24C189.767 404.347 193.837 397.387 197.83 390.36C198.063 389.953 197.947 389.75 197.48 389.75H190.77C190.41 389.75 190.147 389.907 189.98 390.22L181.02 406.75C180.767 407.217 180.513 407.217 180.26 406.75ZM210.5 412.39C210.5 412.287 210.541 412.187 210.614 412.114C210.687 412.041 210.787 412 210.89 412H227.11C227.213 412 227.313 411.959 227.386 411.886C227.459 411.813 227.5 411.713 227.5 411.61V406.39C227.5 406.287 227.459 406.187 227.386 406.114C227.313 406.041 227.213 406 227.11 406H210.89C210.787 406 210.687 405.959 210.614 405.886C210.541 405.813 210.5 405.713 210.5 405.61V396.39C210.5 396.287 210.541 396.187 210.614 396.114C210.687 396.041 210.787 396 210.89 396H228.36C228.463 396 228.563 395.959 228.636 395.886C228.709 395.813 228.75 395.713 228.75 395.61V390.14C228.75 390.037 228.709 389.937 228.636 389.864C228.563 389.791 228.463 389.75 228.36 389.75H203.89C203.787 389.75 203.687 389.791 203.614 389.864C203.541 389.937 203.5 390.037 203.5 390.14V430.61C203.5 430.713 203.541 430.813 203.614 430.886C203.687 430.959 203.787 431 203.89 431H228.36C228.463 431 228.563 430.959 228.636 430.886C228.709 430.813 228.75 430.713 228.75 430.61V425.39C228.75 425.287 228.709 425.187 228.636 425.114C228.563 425.041 228.463 425 228.36 425H210.89C210.787 425 210.687 424.959 210.614 424.886C210.541 424.813 210.5 424.713 210.5 424.61V412.39ZM285 415.5H288.2C288.613 415.5 288.937 415.673 289.17 416.02L298.87 430.55C299.07 430.85 299.35 431 299.71 431H307C307.44 431 307.533 430.82 307.28 430.46L296.31 415.17C296.267 415.112 296.238 415.045 296.226 414.973C296.215 414.902 296.22 414.829 296.243 414.76C296.266 414.692 296.304 414.629 296.356 414.579C296.408 414.528 296.471 414.491 296.54 414.47C306.29 411.31 308.32 397.76 299.68 392.25C294.44 388.91 284.27 389.41 278.05 389.89C277.683 389.917 277.5 390.113 277.5 390.48V430.25C277.5 430.75 277.75 431 278.25 431H283.75C284.25 431 284.5 430.75 284.5 430.25V416C284.5 415.667 284.667 415.5 285 415.5ZM417.5 412.9C417.5 412.794 417.542 412.692 417.617 412.617C417.692 412.542 417.794 412.5 417.9 412.5H432.35C432.456 412.5 432.558 412.458 432.633 412.383C432.708 412.308 432.75 412.206 432.75 412.1V406.65C432.75 406.544 432.708 406.442 432.633 406.367C432.558 406.292 432.456 406.25 432.35 406.25H417.9C417.794 406.25 417.692 406.208 417.617 406.133C417.542 406.058 417.5 405.956 417.5 405.85V396.4C417.5 396.294 417.542 396.192 417.617 396.117C417.692 396.042 417.794 396 417.9 396H432.8C432.904 396 433.005 395.959 433.079 395.886C433.154 395.814 433.197 395.714 433.2 395.61L433.37 390.16C433.371 390.107 433.362 390.054 433.342 390.004C433.323 389.954 433.294 389.909 433.256 389.871C433.219 389.832 433.175 389.802 433.125 389.781C433.076 389.761 433.023 389.75 432.97 389.75H410.9C410.794 389.75 410.692 389.792 410.617 389.867C410.542 389.942 410.5 390.044 410.5 390.15V430.6C410.5 430.706 410.542 430.808 410.617 430.883C410.692 430.958 410.794 431 410.9 431H417.1C417.206 431 417.308 430.958 417.383 430.883C417.458 430.808 417.5 430.706 417.5 430.6V412.9ZM362.5 475.23C362.5 475.168 362.519 475.107 362.554 475.055C362.588 475.003 362.637 474.962 362.695 474.938C362.752 474.914 362.815 474.906 362.877 474.917C362.938 474.928 362.995 474.957 363.04 475L391.97 503.58C392.015 503.626 392.072 503.658 392.136 503.671C392.199 503.684 392.264 503.678 392.324 503.653C392.383 503.628 392.433 503.586 392.469 503.532C392.504 503.478 392.522 503.414 392.52 503.35L392.49 461C392.49 460.915 392.456 460.834 392.396 460.774C392.336 460.714 392.255 460.68 392.17 460.68L386.06 460.77C385.977 460.773 385.898 460.807 385.84 460.867C385.782 460.927 385.75 461.007 385.75 461.09V487.78C385.75 487.842 385.731 487.903 385.696 487.955C385.662 488.007 385.613 488.048 385.555 488.072C385.498 488.096 385.435 488.104 385.373 488.093C385.312 488.082 385.255 488.053 385.21 488.01L356.02 459.2C355.975 459.154 355.918 459.122 355.854 459.109C355.791 459.096 355.726 459.102 355.666 459.127C355.607 459.152 355.557 459.194 355.521 459.248C355.486 459.302 355.468 459.366 355.47 459.43L355.51 501.68C355.51 501.765 355.544 501.846 355.604 501.906C355.664 501.966 355.745 502 355.83 502H362.18C362.265 502 362.346 501.966 362.406 501.906C362.466 501.846 362.5 501.765 362.5 501.68V475.23ZM400.95 472.66C392.74 493.76 414.17 510.25 433.14 499.07C433.507 498.85 433.693 498.527 433.7 498.1L433.78 491.02C433.787 490.387 433.56 490.29 433.1 490.73C426.65 496.99 416.29 498.16 410.16 491.01C405.73 485.84 405.61 477.24 409.95 472.06C416.1 464.72 426.58 465.7 433.18 472.23C433.56 472.61 433.75 472.53 433.75 471.99V464.76C433.75 464.413 433.603 464.143 433.31 463.95C422.48 456.86 405.92 459.87 400.95 472.66ZM140.5 483.3C140.5 483.22 140.532 483.144 140.588 483.088C140.644 483.032 140.72 483 140.8 483H157.2C157.28 483 157.356 482.968 157.412 482.912C157.468 482.856 157.5 482.78 157.5 482.7V477.3C157.5 477.22 157.468 477.144 157.412 477.088C157.356 477.032 157.28 477 157.2 477H140.8C140.72 477 140.644 476.968 140.588 476.912C140.532 476.856 140.5 476.78 140.5 476.7V467.3C140.5 467.22 140.532 467.144 140.588 467.088C140.644 467.032 140.72 467 140.8 467H158.45C158.489 467 158.528 466.992 158.565 466.977C158.601 466.962 158.634 466.94 158.662 466.912C158.69 466.884 158.712 466.851 158.727 466.815C158.742 466.778 158.75 466.739 158.75 466.7V461.04C158.75 461.001 158.742 460.962 158.727 460.925C158.712 460.889 158.69 460.856 158.662 460.828C158.634 460.8 158.601 460.778 158.565 460.763C158.528 460.748 158.489 460.74 158.45 460.74H133.8C133.761 460.74 133.722 460.748 133.685 460.763C133.649 460.778 133.616 460.8 133.588 460.828C133.56 460.856 133.538 460.889 133.523 460.925C133.508 460.962 133.5 461.001 133.5 461.04V501.7C133.5 501.739 133.508 501.778 133.523 501.815C133.538 501.851 133.56 501.884 133.588 501.912C133.616 501.94 133.649 501.962 133.685 501.977C133.722 501.992 133.761 502 133.8 502H158.45C158.489 502 158.528 501.992 158.565 501.977C158.601 501.962 158.634 501.94 158.662 501.912C158.69 501.884 158.712 501.851 158.727 501.815C158.742 501.778 158.75 501.739 158.75 501.7V496.3C158.75 496.261 158.742 496.222 158.727 496.185C158.712 496.149 158.69 496.116 158.662 496.088C158.634 496.06 158.601 496.038 158.565 496.023C158.528 496.008 158.489 496 158.45 496H140.8C140.761 496 140.722 495.992 140.685 495.977C140.649 495.962 140.616 495.94 140.588 495.912C140.56 495.884 140.538 495.851 140.523 495.815C140.508 495.778 140.5 495.739 140.5 495.7V483.3ZM244.5 483.34C244.5 483.295 244.509 483.251 244.526 483.21C244.543 483.169 244.568 483.131 244.6 483.1C244.631 483.068 244.669 483.043 244.71 483.026C244.751 483.009 244.795 483 244.84 483H261.16C261.25 483 261.337 482.964 261.4 482.9C261.464 482.837 261.5 482.75 261.5 482.66V477.34C261.5 477.25 261.464 477.163 261.4 477.1C261.337 477.036 261.25 477 261.16 477H244.84C244.795 477 244.751 476.991 244.71 476.974C244.669 476.957 244.631 476.932 244.6 476.9C244.568 476.869 244.543 476.831 244.526 476.79C244.509 476.749 244.5 476.705 244.5 476.66V467.34C244.5 467.25 244.536 467.163 244.6 467.1C244.663 467.036 244.75 467 244.84 467H262.41C262.5 467 262.587 466.964 262.65 466.9C262.714 466.837 262.75 466.75 262.75 466.66V461.09C262.75 461 262.714 460.913 262.65 460.85C262.587 460.786 262.5 460.75 262.41 460.75L237.84 460.74C237.75 460.74 237.663 460.776 237.6 460.84C237.536 460.903 237.5 460.99 237.5 461.08V501.66C237.5 501.75 237.536 501.837 237.6 501.9C237.663 501.964 237.75 502 237.84 502H262.41C262.5 502 262.587 501.964 262.65 501.9C262.714 501.837 262.75 501.75 262.75 501.66V496.34C262.75 496.25 262.714 496.163 262.65 496.1C262.587 496.036 262.5 496 262.41 496H244.84C244.795 496 244.751 495.991 244.71 495.974C244.669 495.957 244.631 495.932 244.6 495.9C244.568 495.869 244.543 495.831 244.526 495.79C244.509 495.749 244.5 495.705 244.5 495.66V483.34ZM312.5 460.98C312.5 460.911 312.473 460.845 312.424 460.796C312.375 460.747 312.309 460.72 312.24 460.72H305.76C305.691 460.72 305.625 460.747 305.576 460.796C305.527 460.845 305.5 460.911 305.5 460.98V501.74C305.5 501.809 305.527 501.875 305.576 501.924C305.625 501.973 305.691 502 305.76 502H312.24C312.309 502 312.375 501.973 312.424 501.924C312.473 501.875 312.5 501.809 312.5 501.74V460.98ZM328.82 496C328.735 496 328.654 495.966 328.594 495.906C328.534 495.846 328.5 495.765 328.5 495.68V483.32C328.5 483.235 328.534 483.154 328.594 483.094C328.654 483.034 328.735 483 328.82 483H345.15C345.235 483 345.316 482.966 345.376 482.906C345.436 482.846 345.47 482.765 345.47 482.68L345.55 477.32C345.55 477.235 345.516 477.154 345.456 477.094C345.396 477.034 345.315 477 345.23 477H328.82C328.735 477 328.654 476.966 328.594 476.906C328.534 476.846 328.5 476.765 328.5 476.68V467.32C328.5 467.235 328.534 467.154 328.594 467.094C328.654 467.034 328.735 467 328.82 467H346.43C346.515 467 346.596 466.966 346.656 466.906C346.716 466.846 346.75 466.765 346.75 466.68V461.07C346.75 460.985 346.716 460.904 346.656 460.844C346.596 460.784 346.515 460.75 346.43 460.75H321.82C321.735 460.75 321.654 460.784 321.594 460.844C321.534 460.904 321.5 460.985 321.5 461.07V501.68C321.5 501.765 321.534 501.846 321.594 501.906C321.654 501.966 321.735 502 321.82 502H346.43C346.515 502 346.596 501.966 346.656 501.906C346.716 501.846 346.75 501.765 346.75 501.68V496.32C346.75 496.235 346.716 496.154 346.656 496.094C346.596 496.034 346.515 496 346.43 496H328.82ZM448.82 477C448.735 477 448.654 476.966 448.594 476.906C448.534 476.846 448.5 476.765 448.5 476.68V467.32C448.5 467.235 448.534 467.154 448.594 467.094C448.654 467.034 448.735 467 448.82 467H466.43C466.515 467 466.596 466.966 466.656 466.906C466.716 466.846 466.75 466.765 466.75 466.68V461.07C466.75 460.985 466.716 460.904 466.656 460.844C466.596 460.784 466.515 460.75 466.43 460.75L441.82 460.74C441.735 460.74 441.654 460.774 441.594 460.834C441.534 460.894 441.5 460.975 441.5 461.06V501.68C441.5 501.765 441.534 501.846 441.594 501.906C441.654 501.966 441.735 502 441.82 502H466.43C466.515 502 466.596 501.966 466.656 501.906C466.716 501.846 466.75 501.765 466.75 501.68V496.32C466.75 496.235 466.716 496.154 466.656 496.094C466.596 496.034 466.515 496 466.43 496H448.82C448.735 496 448.654 495.966 448.594 495.906C448.534 495.846 448.5 495.765 448.5 495.68V483.32C448.5 483.235 448.534 483.154 448.594 483.094C448.654 483.034 448.735 483 448.82 483H465.15C465.235 483 465.316 482.966 465.376 482.906C465.436 482.846 465.47 482.765 465.47 482.68L465.55 477.32C465.55 477.235 465.516 477.154 465.456 477.094C465.396 477.034 465.315 477 465.23 477H448.82ZM181.35 474.22C181.322 474.27 181.282 474.312 181.233 474.341C181.183 474.37 181.127 474.385 181.07 474.385C181.013 474.385 180.957 474.37 180.907 474.341C180.858 474.312 180.818 474.27 180.79 474.22L173.39 460.91C173.362 460.861 173.321 460.82 173.272 460.792C173.222 460.764 173.167 460.749 173.11 460.75H165.42C165.363 460.75 165.307 460.766 165.258 460.795C165.209 460.824 165.168 460.866 165.141 460.916C165.113 460.966 165.1 461.022 165.101 461.079C165.103 461.136 165.12 461.192 165.15 461.24L176.99 480.44C177.022 480.491 177.039 480.55 177.039 480.61C177.039 480.67 177.022 480.729 176.99 480.78L163.72 501.51C163.69 501.558 163.673 501.612 163.671 501.669C163.669 501.725 163.682 501.78 163.708 501.83C163.735 501.88 163.774 501.922 163.821 501.952C163.869 501.981 163.924 501.998 163.98 502H171.76C171.817 502.001 171.872 501.986 171.922 501.958C171.971 501.93 172.012 501.889 172.04 501.84L180.72 486.74C180.748 486.69 180.788 486.648 180.837 486.619C180.887 486.59 180.943 486.575 181 486.575C181.057 486.575 181.113 486.59 181.163 486.619C181.212 486.648 181.252 486.69 181.28 486.74L189.69 501.84C189.718 501.889 189.759 501.93 189.808 501.958C189.858 501.986 189.913 502.001 189.97 502H197.75C197.807 502 197.863 501.984 197.912 501.955C197.961 501.926 198.002 501.884 198.029 501.834C198.057 501.784 198.07 501.728 198.069 501.671C198.067 501.614 198.05 501.558 198.02 501.51L185.07 480.79C185.038 480.739 185.021 480.68 185.021 480.62C185.021 480.56 185.038 480.501 185.07 480.45L197.15 461.24C197.18 461.192 197.197 461.136 197.199 461.079C197.2 461.022 197.187 460.966 197.159 460.916C197.132 460.866 197.091 460.824 197.042 460.795C196.993 460.766 196.937 460.75 196.88 460.75H189.16C189.103 460.749 189.048 460.764 188.998 460.792C188.949 460.82 188.908 460.861 188.88 460.91L181.35 474.22ZM211.14 486.4C219.05 487.28 228.53 485.58 230.52 476.42C232.12 469.07 227.36 462.35 219.93 461.12C215.95 460.45 209.12 460.66 203.97 460.78C203.657 460.787 203.5 460.947 203.5 461.26V501.5C203.5 501.833 203.667 502 204 502H210C210.333 502 210.5 501.833 210.5 501.5V486.97C210.5 486.543 210.713 486.353 211.14 486.4ZM278 486.5H281.27C281.623 486.5 281.9 486.647 282.1 486.94L291.84 501.49C292.067 501.83 292.383 502 292.79 502H299.91C300.39 502 300.49 501.803 300.21 501.41L289.33 486.17C289.077 485.817 289.153 485.57 289.56 485.43C294.66 483.65 297.47 480.263 297.99 475.27C299.67 459.18 281.2 460.13 271.05 460.88C270.683 460.907 270.5 461.107 270.5 461.48V501.25C270.5 501.75 270.75 502 271.25 502H276.87C277.29 502 277.5 501.79 277.5 501.37V487C277.5 486.667 277.667 486.5 278 486.5Z" fill="#38BD74"/>
<path d="M163.55 238.3L163.48 208.98C163.481 208.902 163.508 208.827 163.557 208.767C163.606 208.707 163.674 208.666 163.75 208.65L231.34 195.22C231.389 195.21 231.44 195.21 231.489 195.222C231.538 195.234 231.584 195.256 231.623 195.288C231.662 195.319 231.694 195.359 231.716 195.405C231.738 195.45 231.75 195.5 231.75 195.55V338.68C231.75 338.77 231.714 338.857 231.65 338.92C231.587 338.984 231.5 339.02 231.41 339.02L198.84 338.99C198.795 338.99 198.751 338.981 198.71 338.964C198.669 338.947 198.631 338.922 198.6 338.89C198.568 338.859 198.543 338.821 198.526 338.78C198.509 338.739 198.5 338.695 198.5 338.65V230.72C198.5 230.669 198.488 230.618 198.466 230.572C198.443 230.525 198.41 230.485 198.37 230.453C198.33 230.421 198.283 230.399 198.232 230.388C198.182 230.377 198.13 230.378 198.08 230.39L163.97 238.63C163.92 238.642 163.868 238.643 163.818 238.632C163.767 238.621 163.72 238.599 163.68 238.567C163.64 238.535 163.607 238.495 163.584 238.448C163.562 238.402 163.55 238.351 163.55 238.3Z" fill="white"/>
<path d="M321.43 340.62C290.03 346.16 263.66 328.88 255.12 298.65C243.48 257.44 254.73 196.02 308.97 195.26C339.14 194.84 359.75 214.48 365.82 243.58C373.4 279.94 366.23 332.7 321.43 340.62ZM286.99 290.49C289.77 300.79 297.46 311.96 309.03 312.28C343.33 313.22 343.78 230.14 313.25 224.96C298.13 222.4 289.35 236.05 286.37 248.57C283.03 262.617 283.237 276.59 286.99 290.49Z" fill="white"/>
<path d="M396.5 231.24V208.76C396.5 208.625 396.554 208.495 396.649 208.399C396.745 208.304 396.875 208.25 397.01 208.25H414.49C414.625 208.25 414.755 208.304 414.851 208.399C414.946 208.495 415 208.625 415 208.76V231.24C415 231.375 415.054 231.505 415.149 231.601C415.245 231.696 415.375 231.75 415.51 231.75H437.24C437.375 231.75 437.505 231.804 437.601 231.899C437.696 231.995 437.75 232.125 437.75 232.26V248.49C437.75 248.625 437.696 248.755 437.601 248.851C437.505 248.946 437.375 249 437.24 249H415.51C415.375 249 415.245 249.054 415.149 249.149C415.054 249.245 415 249.375 415 249.51V271.74C415 271.875 414.946 272.005 414.851 272.101C414.755 272.196 414.625 272.25 414.49 272.25H397.01C396.875 272.25 396.745 272.196 396.649 272.101C396.554 272.005 396.5 271.875 396.5 271.74V249.51C396.5 249.375 396.446 249.245 396.351 249.149C396.255 249.054 396.125 249 395.99 249H374.01C373.875 249 373.745 248.946 373.649 248.851C373.554 248.755 373.5 248.625 373.5 248.49V232.26C373.5 232.125 373.554 231.995 373.649 231.899C373.745 231.804 373.875 231.75 374.01 231.75H395.99C396.125 231.75 396.255 231.696 396.351 231.601C396.446 231.505 396.5 231.375 396.5 231.24Z" fill="white"/>
<path d="M309.03 312.28C297.46 311.96 289.77 300.79 286.99 290.49C283.237 276.59 283.03 262.617 286.37 248.57C289.35 236.05 298.13 222.4 313.25 224.96C343.78 230.14 343.33 313.22 309.03 312.28Z" fill="#38BD74"/>
<path d="M259.66 420.5H244.88C244.821 420.499 244.763 420.516 244.713 420.548C244.663 420.58 244.624 420.626 244.6 420.68L240.13 430.82C240.106 430.874 240.067 430.92 240.017 430.952C239.967 430.984 239.909 431.001 239.85 431H232.63C232.579 431 232.529 430.987 232.485 430.962C232.441 430.938 232.403 430.902 232.376 430.86C232.349 430.817 232.334 430.767 232.331 430.717C232.328 430.666 232.338 430.616 232.36 430.57L252.04 388C252.065 387.949 252.103 387.907 252.151 387.877C252.198 387.847 252.254 387.831 252.31 387.831C252.366 387.831 252.422 387.847 252.469 387.877C252.517 387.907 252.555 387.949 252.58 388L272.2 430.57C272.222 430.616 272.232 430.666 272.229 430.717C272.226 430.767 272.211 430.817 272.184 430.86C272.157 430.902 272.119 430.938 272.075 430.962C272.031 430.987 271.981 431 271.93 431H264.72C264.661 431.001 264.603 430.984 264.553 430.952C264.503 430.92 264.464 430.874 264.44 430.82L259.94 420.68C259.916 420.626 259.877 420.58 259.827 420.548C259.777 420.516 259.719 420.499 259.66 420.5ZM247 414.04C246.98 414.087 246.973 414.137 246.977 414.188C246.982 414.238 246.998 414.287 247.026 414.329C247.054 414.372 247.091 414.407 247.136 414.431C247.18 414.456 247.229 414.469 247.28 414.47L257.21 414.52C257.261 414.521 257.312 414.509 257.358 414.485C257.403 414.461 257.442 414.426 257.471 414.383C257.5 414.341 257.518 414.292 257.523 414.24C257.528 414.189 257.52 414.137 257.5 414.09L252.6 402.34C252.576 402.284 252.536 402.237 252.486 402.203C252.435 402.17 252.376 402.152 252.315 402.152C252.254 402.152 252.195 402.17 252.144 402.203C252.094 402.237 252.054 402.284 252.03 402.34L247 414.04Z" fill="white"/>
<path d="M316.96 408.78C300.93 395.5 329.14 378.75 339.02 397.44C339.2 397.78 339.123 398.04 338.79 398.22L334.1 400.78C333.787 400.953 333.53 400.893 333.33 400.6C330.41 396.33 327.01 394.04 321.68 396.2C321.36 396.327 321.107 396.54 320.92 396.84C315.84 405.02 331.74 407.11 335.91 411.08C341.78 416.68 340.36 425.38 333.88 429.65C325.51 435.16 314.61 430.21 310.39 421.74C310.23 421.413 310.297 421.15 310.59 420.95L314.92 417.94C315.293 417.68 315.58 417.753 315.78 418.16C317.167 421.04 319.2 423.147 321.88 424.48C329.81 428.44 336.54 419.85 329.32 414.93C326.46 412.98 320.76 411.94 316.96 408.78Z" fill="white"/>
<path d="M404.09 410.49C404.09 416.189 401.826 421.656 397.796 425.686C393.766 429.716 388.3 431.98 382.6 431.98C376.901 431.98 371.434 429.716 367.404 425.686C363.374 421.656 361.11 416.189 361.11 410.49C361.11 407.668 361.666 404.873 362.746 402.266C363.826 399.659 365.409 397.29 367.404 395.294C369.4 393.299 371.769 391.716 374.376 390.636C376.983 389.556 379.778 389 382.6 389C385.422 389 388.217 389.556 390.824 390.636C393.431 391.716 395.8 393.299 397.796 395.294C399.791 397.29 401.374 399.659 402.454 402.266C403.534 404.873 404.09 407.668 404.09 410.49ZM382.447 425.049C386.159 425.088 389.736 423.582 392.39 420.862C395.045 418.142 396.559 414.432 396.599 410.547C396.64 406.661 395.204 402.92 392.607 400.145C390.011 397.37 386.466 395.79 382.753 395.751C379.041 395.712 375.464 397.218 372.81 399.938C370.155 402.658 368.641 406.368 368.601 410.253C368.56 414.139 369.996 417.88 372.593 420.655C375.189 423.43 378.734 425.01 382.447 425.049Z" fill="white"/>
<path d="M181.02 406.75L189.98 390.22C190.147 389.907 190.41 389.75 190.77 389.75H197.48C197.947 389.75 198.063 389.953 197.83 390.36C193.837 397.387 189.767 404.347 185.62 411.24C183.15 415.34 184.15 425.52 184.32 430.38C184.333 430.793 184.133 431 183.72 431H177.55C177.137 431 176.937 430.797 176.95 430.39C177.07 425.56 178.11 415.21 175.69 411.21C171.503 404.27 167.423 397.293 163.45 390.28C163.25 389.927 163.353 389.75 163.76 389.75H170.63C170.957 389.75 171.197 389.897 171.35 390.19L180.26 406.75C180.513 407.217 180.767 407.217 181.02 406.75Z" fill="white"/>
<path d="M210.5 412.39V424.61C210.5 424.713 210.541 424.813 210.614 424.886C210.687 424.959 210.787 425 210.89 425H228.36C228.463 425 228.563 425.041 228.636 425.114C228.709 425.187 228.75 425.287 228.75 425.39V430.61C228.75 430.713 228.709 430.813 228.636 430.886C228.563 430.959 228.463 431 228.36 431H203.89C203.787 431 203.687 430.959 203.614 430.886C203.541 430.813 203.5 430.713 203.5 430.61V390.14C203.5 390.037 203.541 389.937 203.614 389.864C203.687 389.791 203.787 389.75 203.89 389.75H228.36C228.463 389.75 228.563 389.791 228.636 389.864C228.709 389.937 228.75 390.037 228.75 390.14V395.61C228.75 395.713 228.709 395.813 228.636 395.886C228.563 395.959 228.463 396 228.36 396H210.89C210.787 396 210.687 396.041 210.614 396.114C210.541 396.187 210.5 396.287 210.5 396.39V405.61C210.5 405.713 210.541 405.813 210.614 405.886C210.687 405.959 210.787 406 210.89 406H227.11C227.213 406 227.313 406.041 227.386 406.114C227.459 406.187 227.5 406.287 227.5 406.39V411.61C227.5 411.713 227.459 411.813 227.386 411.886C227.313 411.959 227.213 412 227.11 412H210.89C210.787 412 210.687 412.041 210.614 412.114C210.541 412.187 210.5 412.287 210.5 412.39Z" fill="white"/>
<path d="M284.5 416V430.25C284.5 430.75 284.25 431 283.75 431H278.25C277.75 431 277.5 430.75 277.5 430.25V390.48C277.5 390.113 277.683 389.917 278.05 389.89C284.27 389.41 294.44 388.91 299.68 392.25C308.32 397.76 306.29 411.31 296.54 414.47C296.471 414.491 296.408 414.528 296.356 414.579C296.304 414.629 296.266 414.692 296.243 414.76C296.22 414.829 296.215 414.902 296.226 414.973C296.238 415.045 296.267 415.112 296.31 415.17L307.28 430.46C307.533 430.82 307.44 431 307 431H299.71C299.35 431 299.07 430.85 298.87 430.55L289.17 416.02C288.937 415.673 288.613 415.5 288.2 415.5H285C284.667 415.5 284.5 415.667 284.5 416ZM284.51 396.46L284.47 409.1C284.47 409.233 284.523 409.36 284.616 409.454C284.71 409.547 284.837 409.6 284.97 409.6L290.33 409.62C291.305 409.623 292.271 409.463 293.172 409.148C294.074 408.833 294.893 408.37 295.584 407.785C296.275 407.199 296.824 406.504 297.199 405.738C297.574 404.972 297.768 404.15 297.77 403.32V402.32C297.774 400.645 296.997 399.036 295.609 397.847C294.222 396.658 292.337 395.986 290.37 395.98L285.01 395.96C284.877 395.96 284.75 396.013 284.656 396.106C284.563 396.2 284.51 396.327 284.51 396.46Z" fill="white"/>
<path d="M417.5 412.9V430.6C417.5 430.706 417.458 430.808 417.383 430.883C417.308 430.958 417.206 431 417.1 431H410.9C410.794 431 410.692 430.958 410.617 430.883C410.542 430.808 410.5 430.706 410.5 430.6V390.15C410.5 390.044 410.542 389.942 410.617 389.867C410.692 389.792 410.794 389.75 410.9 389.75H432.97C433.023 389.75 433.076 389.761 433.125 389.781C433.175 389.802 433.219 389.832 433.256 389.871C433.294 389.909 433.323 389.954 433.342 390.004C433.362 390.054 433.371 390.107 433.37 390.16L433.2 395.61C433.197 395.714 433.154 395.814 433.079 395.886C433.005 395.959 432.904 396 432.8 396H417.9C417.794 396 417.692 396.042 417.617 396.117C417.542 396.192 417.5 396.294 417.5 396.4V405.85C417.5 405.956 417.542 406.058 417.617 406.133C417.692 406.208 417.794 406.25 417.9 406.25H432.35C432.456 406.25 432.558 406.292 432.633 406.367C432.708 406.442 432.75 406.544 432.75 406.65V412.1C432.75 412.206 432.708 412.308 432.633 412.383C432.558 412.458 432.456 412.5 432.35 412.5H417.9C417.794 412.5 417.692 412.542 417.617 412.617C417.542 412.692 417.5 412.794 417.5 412.9Z" fill="white"/>
<path d="M368.601 410.253C368.516 418.344 374.715 424.968 382.447 425.049C390.178 425.13 396.515 418.637 396.599 410.547C396.684 402.456 390.485 395.832 382.753 395.751C375.022 395.67 368.686 402.163 368.601 410.253Z" fill="#38BD74"/>
<path d="M284.51 396.46C284.51 396.327 284.563 396.2 284.656 396.106C284.75 396.013 284.877 395.96 285.01 395.96L290.37 395.98C292.337 395.986 294.222 396.658 295.609 397.847C296.997 399.036 297.774 400.645 297.77 402.32V403.32C297.768 404.15 297.574 404.972 297.199 405.738C296.824 406.504 296.275 407.199 295.584 407.785C294.893 408.37 294.074 408.833 293.172 409.148C292.271 409.463 291.305 409.623 290.33 409.62L284.97 409.6C284.837 409.6 284.71 409.547 284.616 409.454C284.523 409.36 284.47 409.233 284.47 409.1L284.51 396.46Z" fill="#38BD74"/>
<path d="M247 414.04L252.03 402.34C252.054 402.284 252.094 402.237 252.144 402.203C252.195 402.17 252.254 402.152 252.315 402.152C252.376 402.152 252.435 402.17 252.486 402.203C252.536 402.237 252.576 402.284 252.6 402.34L257.5 414.09C257.52 414.137 257.528 414.189 257.523 414.24C257.518 414.292 257.5 414.341 257.471 414.383C257.442 414.426 257.403 414.461 257.358 414.485C257.312 414.509 257.261 414.521 257.21 414.52L247.28 414.47C247.229 414.469 247.18 414.456 247.136 414.431C247.091 414.407 247.054 414.372 247.026 414.329C246.998 414.287 246.982 414.238 246.977 414.188C246.973 414.137 246.98 414.087 247 414.04Z" fill="#38BD74"/>
<path d="M362.5 475.23V501.68C362.5 501.765 362.466 501.846 362.406 501.906C362.346 501.966 362.265 502 362.18 502H355.83C355.745 502 355.664 501.966 355.604 501.906C355.544 501.846 355.51 501.765 355.51 501.68L355.47 459.43C355.468 459.366 355.486 459.302 355.521 459.248C355.557 459.194 355.607 459.152 355.666 459.127C355.726 459.102 355.791 459.096 355.854 459.109C355.918 459.122 355.975 459.154 356.02 459.2L385.21 488.01C385.255 488.053 385.312 488.082 385.373 488.093C385.435 488.104 385.498 488.096 385.555 488.072C385.613 488.048 385.662 488.007 385.696 487.955C385.731 487.903 385.75 487.842 385.75 487.78V461.09C385.75 461.007 385.782 460.927 385.84 460.867C385.898 460.807 385.977 460.773 386.06 460.77L392.17 460.68C392.255 460.68 392.336 460.714 392.396 460.774C392.456 460.834 392.49 460.915 392.49 461L392.52 503.35C392.522 503.414 392.504 503.478 392.469 503.532C392.433 503.586 392.383 503.628 392.324 503.653C392.264 503.678 392.199 503.684 392.136 503.671C392.072 503.658 392.015 503.626 391.97 503.58L363.04 475C362.995 474.957 362.938 474.928 362.877 474.917C362.815 474.906 362.752 474.914 362.695 474.938C362.637 474.962 362.588 475.003 362.554 475.055C362.519 475.107 362.5 475.168 362.5 475.23Z" fill="white"/>
<path d="M433.14 499.07C414.17 510.25 392.74 493.76 400.95 472.66C405.92 459.87 422.48 456.86 433.31 463.95C433.603 464.143 433.75 464.413 433.75 464.76V471.99C433.75 472.53 433.56 472.61 433.18 472.23C426.58 465.7 416.1 464.72 409.95 472.06C405.61 477.24 405.73 485.84 410.16 491.01C416.29 498.16 426.65 496.99 433.1 490.73C433.56 490.29 433.787 490.387 433.78 491.02L433.7 498.1C433.693 498.527 433.507 498.85 433.14 499.07Z" fill="white"/>
<path d="M140.5 483.3V495.7C140.5 495.739 140.508 495.778 140.523 495.815C140.538 495.851 140.56 495.884 140.588 495.912C140.616 495.94 140.649 495.962 140.685 495.977C140.722 495.992 140.761 496 140.8 496H158.45C158.489 496 158.528 496.008 158.565 496.023C158.601 496.038 158.634 496.06 158.662 496.088C158.69 496.116 158.712 496.149 158.727 496.185C158.742 496.222 158.75 496.261 158.75 496.3V501.7C158.75 501.739 158.742 501.778 158.727 501.815C158.712 501.851 158.69 501.884 158.662 501.912C158.634 501.94 158.601 501.962 158.565 501.977C158.528 501.992 158.489 502 158.45 502H133.8C133.761 502 133.722 501.992 133.685 501.977C133.649 501.962 133.616 501.94 133.588 501.912C133.56 501.884 133.538 501.851 133.523 501.815C133.508 501.778 133.5 501.739 133.5 501.7V461.04C133.5 461.001 133.508 460.962 133.523 460.925C133.538 460.889 133.56 460.856 133.588 460.828C133.616 460.8 133.649 460.778 133.685 460.763C133.722 460.748 133.761 460.74 133.8 460.74H158.45C158.489 460.74 158.528 460.748 158.565 460.763C158.601 460.778 158.634 460.8 158.662 460.828C158.69 460.856 158.712 460.889 158.727 460.925C158.742 460.962 158.75 461.001 158.75 461.04V466.7C158.75 466.739 158.742 466.778 158.727 466.815C158.712 466.851 158.69 466.884 158.662 466.912C158.634 466.94 158.601 466.962 158.565 466.977C158.528 466.992 158.489 467 158.45 467H140.8C140.72 467 140.644 467.032 140.588 467.088C140.532 467.144 140.5 467.22 140.5 467.3V476.7C140.5 476.78 140.532 476.856 140.588 476.912C140.644 476.968 140.72 477 140.8 477H157.2C157.28 477 157.356 477.032 157.412 477.088C157.468 477.144 157.5 477.22 157.5 477.3V482.7C157.5 482.78 157.468 482.856 157.412 482.912C157.356 482.968 157.28 483 157.2 483H140.8C140.72 483 140.644 483.032 140.588 483.088C140.532 483.144 140.5 483.22 140.5 483.3Z" fill="white"/>
<path d="M244.5 483.34V495.66C244.5 495.705 244.509 495.749 244.526 495.79C244.543 495.831 244.568 495.869 244.6 495.9C244.631 495.932 244.669 495.957 244.71 495.974C244.751 495.991 244.795 496 244.84 496H262.41C262.5 496 262.587 496.036 262.65 496.1C262.714 496.163 262.75 496.25 262.75 496.34V501.66C262.75 501.75 262.714 501.837 262.65 501.9C262.587 501.964 262.5 502 262.41 502H237.84C237.75 502 237.663 501.964 237.6 501.9C237.536 501.837 237.5 501.75 237.5 501.66V461.08C237.5 460.99 237.536 460.903 237.6 460.84C237.663 460.776 237.75 460.74 237.84 460.74L262.41 460.75C262.5 460.75 262.587 460.786 262.65 460.85C262.714 460.913 262.75 461 262.75 461.09V466.66C262.75 466.75 262.714 466.837 262.65 466.9C262.587 466.964 262.5 467 262.41 467H244.84C244.75 467 244.663 467.036 244.6 467.1C244.536 467.163 244.5 467.25 244.5 467.34V476.66C244.5 476.705 244.509 476.749 244.526 476.79C244.543 476.831 244.568 476.869 244.6 476.9C244.631 476.932 244.669 476.957 244.71 476.974C244.751 476.991 244.795 477 244.84 477H261.16C261.25 477 261.337 477.036 261.4 477.1C261.464 477.163 261.5 477.25 261.5 477.34V482.66C261.5 482.75 261.464 482.837 261.4 482.9C261.337 482.964 261.25 483 261.16 483H244.84C244.795 483 244.751 483.009 244.71 483.026C244.669 483.043 244.631 483.068 244.6 483.1C244.568 483.131 244.543 483.169 244.526 483.21C244.509 483.251 244.5 483.295 244.5 483.34Z" fill="white"/>
<path d="M312.24 460.72H305.76C305.616 460.72 305.5 460.836 305.5 460.98V501.74C305.5 501.884 305.616 502 305.76 502H312.24C312.384 502 312.5 501.884 312.5 501.74V460.98C312.5 460.836 312.384 460.72 312.24 460.72Z" fill="white"/>
<path d="M328.82 496H346.43C346.515 496 346.596 496.034 346.656 496.094C346.716 496.154 346.75 496.235 346.75 496.32V501.68C346.75 501.765 346.716 501.846 346.656 501.906C346.596 501.966 346.515 502 346.43 502H321.82C321.735 502 321.654 501.966 321.594 501.906C321.534 501.846 321.5 501.765 321.5 501.68V461.07C321.5 460.985 321.534 460.904 321.594 460.844C321.654 460.784 321.735 460.75 321.82 460.75H346.43C346.515 460.75 346.596 460.784 346.656 460.844C346.716 460.904 346.75 460.985 346.75 461.07V466.68C346.75 466.765 346.716 466.846 346.656 466.906C346.596 466.966 346.515 467 346.43 467H328.82C328.735 467 328.654 467.034 328.594 467.094C328.534 467.154 328.5 467.235 328.5 467.32V476.68C328.5 476.765 328.534 476.846 328.594 476.906C328.654 476.966 328.735 477 328.82 477H345.23C345.315 477 345.396 477.034 345.456 477.094C345.516 477.154 345.55 477.235 345.55 477.32L345.47 482.68C345.47 482.765 345.436 482.846 345.376 482.906C345.316 482.966 345.235 483 345.15 483H328.82C328.735 483 328.654 483.034 328.594 483.094C328.534 483.154 328.5 483.235 328.5 483.32V495.68C328.5 495.765 328.534 495.846 328.594 495.906C328.654 495.966 328.735 496 328.82 496Z" fill="white"/>
<path d="M448.82 477H465.23C465.315 477 465.396 477.034 465.456 477.094C465.516 477.154 465.55 477.235 465.55 477.32L465.47 482.68C465.47 482.765 465.436 482.846 465.376 482.906C465.316 482.966 465.235 483 465.15 483H448.82C448.735 483 448.654 483.034 448.594 483.094C448.534 483.154 448.5 483.235 448.5 483.32V495.68C448.5 495.765 448.534 495.846 448.594 495.906C448.654 495.966 448.735 496 448.82 496H466.43C466.515 496 466.596 496.034 466.656 496.094C466.716 496.154 466.75 496.235 466.75 496.32V501.68C466.75 501.765 466.716 501.846 466.656 501.906C466.596 501.966 466.515 502 466.43 502H441.82C441.735 502 441.654 501.966 441.594 501.906C441.534 501.846 441.5 501.765 441.5 501.68V461.06C441.5 460.975 441.534 460.894 441.594 460.834C441.654 460.774 441.735 460.74 441.82 460.74L466.43 460.75C466.515 460.75 466.596 460.784 466.656 460.844C466.716 460.904 466.75 460.985 466.75 461.07V466.68C466.75 466.765 466.716 466.846 466.656 466.906C466.596 466.966 466.515 467 466.43 467H448.82C448.735 467 448.654 467.034 448.594 467.094C448.534 467.154 448.5 467.235 448.5 467.32V476.68C448.5 476.765 448.534 476.846 448.594 476.906C448.654 476.966 448.735 477 448.82 477Z" fill="white"/>
<path d="M181.35 474.22L188.88 460.91C188.908 460.861 188.949 460.82 188.998 460.792C189.048 460.764 189.103 460.75 189.16 460.75H196.88C196.937 460.75 196.993 460.766 197.042 460.795C197.091 460.824 197.132 460.866 197.159 460.916C197.187 460.966 197.2 461.022 197.199 461.079C197.197 461.136 197.18 461.192 197.15 461.24L185.07 480.45C185.038 480.501 185.021 480.56 185.021 480.62C185.021 480.68 185.038 480.739 185.07 480.79L198.02 501.51C198.05 501.558 198.067 501.614 198.069 501.671C198.07 501.728 198.057 501.784 198.029 501.834C198.002 501.884 197.961 501.926 197.912 501.955C197.863 501.984 197.807 502 197.75 502H189.97C189.913 502.001 189.858 501.986 189.808 501.958C189.759 501.93 189.718 501.889 189.69 501.84L181.28 486.74C181.252 486.69 181.212 486.648 181.163 486.619C181.113 486.59 181.057 486.575 181 486.575C180.943 486.575 180.887 486.59 180.837 486.619C180.788 486.648 180.748 486.69 180.72 486.74L172.04 501.84C172.012 501.889 171.971 501.93 171.922 501.958C171.872 501.986 171.817 502.001 171.76 502H163.98C163.924 501.998 163.869 501.981 163.821 501.952C163.774 501.922 163.735 501.88 163.708 501.83C163.682 501.78 163.669 501.725 163.671 501.669C163.673 501.612 163.69 501.558 163.72 501.51L176.99 480.78C177.022 480.729 177.039 480.67 177.039 480.61C177.039 480.55 177.022 480.491 176.99 480.44L165.15 461.24C165.12 461.192 165.103 461.136 165.101 461.079C165.1 461.022 165.113 460.966 165.141 460.916C165.168 460.866 165.209 460.824 165.258 460.795C165.307 460.766 165.363 460.75 165.42 460.75H173.11C173.167 460.75 173.222 460.764 173.272 460.792C173.321 460.82 173.362 460.861 173.39 460.91L180.79 474.22C180.818 474.27 180.858 474.312 180.907 474.341C180.957 474.37 181.013 474.385 181.07 474.385C181.127 474.385 181.183 474.37 181.233 474.341C181.282 474.312 181.322 474.27 181.35 474.22Z" fill="white"/>
<path d="M210.5 486.97V501.5C210.5 501.833 210.333 502 210 502H204C203.667 502 203.5 501.833 203.5 501.5V461.26C203.5 460.947 203.657 460.787 203.97 460.78C209.12 460.66 215.95 460.45 219.93 461.12C227.36 462.35 232.12 469.07 230.52 476.42C228.53 485.58 219.05 487.28 211.14 486.4C210.713 486.353 210.5 486.543 210.5 486.97ZM210.51 467.73L210.47 479.49C210.47 479.681 210.546 479.864 210.681 479.999C210.816 480.134 210.999 480.21 211.19 480.21L216.51 480.23C217.461 480.233 218.404 480.078 219.283 479.774C220.163 479.469 220.963 479.022 221.637 478.456C222.311 477.89 222.847 477.218 223.213 476.478C223.579 475.737 223.768 474.943 223.77 474.14V473.16C223.774 471.54 223.016 469.985 221.662 468.835C220.308 467.686 218.469 467.036 216.55 467.03L211.23 467.01C211.039 467.01 210.856 467.086 210.721 467.221C210.586 467.356 210.51 467.539 210.51 467.73Z" fill="white"/>
<path d="M277.5 487V501.37C277.5 501.79 277.29 502 276.87 502H271.25C270.75 502 270.5 501.75 270.5 501.25V461.48C270.5 461.107 270.683 460.907 271.05 460.88C281.2 460.13 299.67 459.18 297.99 475.27C297.47 480.263 294.66 483.65 289.56 485.43C289.153 485.57 289.077 485.817 289.33 486.17L300.21 501.41C300.49 501.803 300.39 502 299.91 502H292.79C292.383 502 292.067 501.83 291.84 501.49L282.1 486.94C281.9 486.647 281.623 486.5 281.27 486.5H278C277.667 486.5 277.5 486.667 277.5 487ZM277.47 467.52L277.51 480.12C277.51 480.255 277.564 480.385 277.659 480.481C277.755 480.576 277.885 480.63 278.02 480.63L283.53 480.61C285.455 480.604 287.299 479.932 288.656 478.744C290.014 477.555 290.774 475.946 290.77 474.27V473.29C290.768 472.46 290.578 471.638 290.211 470.872C289.844 470.106 289.307 469.411 288.631 468.826C287.955 468.241 287.153 467.777 286.271 467.462C285.389 467.147 284.444 466.987 283.49 466.99L277.98 467.01C277.845 467.01 277.715 467.064 277.619 467.159C277.524 467.255 277.47 467.385 277.47 467.52Z" fill="white"/>
<path d="M210.51 467.73C210.51 467.539 210.586 467.356 210.721 467.221C210.856 467.086 211.039 467.01 211.23 467.01L216.55 467.03C218.469 467.036 220.308 467.686 221.662 468.835C223.016 469.985 223.774 471.54 223.77 473.16V474.14C223.768 474.943 223.579 475.737 223.213 476.478C222.847 477.218 222.311 477.89 221.637 478.456C220.963 479.022 220.163 479.469 219.283 479.774C218.404 480.078 217.461 480.233 216.51 480.23L211.19 480.21C210.999 480.21 210.816 480.134 210.681 479.999C210.546 479.864 210.47 479.681 210.47 479.49L210.51 467.73Z" fill="#38BD74"/>
<path d="M277.47 467.52C277.47 467.385 277.524 467.255 277.619 467.159C277.715 467.064 277.845 467.01 277.98 467.01L283.49 466.99C284.444 466.987 285.389 467.147 286.271 467.462C287.153 467.777 287.955 468.241 288.631 468.826C289.307 469.411 289.844 470.106 290.211 470.872C290.578 471.638 290.768 472.46 290.77 473.29V474.27C290.774 475.946 290.014 477.555 288.656 478.744C287.299 479.932 285.455 480.604 283.53 480.61L278.02 480.63C277.885 480.63 277.755 480.576 277.659 480.481C277.564 480.385 277.51 480.255 277.51 480.12L277.47 467.52Z" fill="#38BD74"/>
</g>
<defs>
<clipPath id="clip0_11_2">
<rect width="600" height="700" fill="white"/>
</clipPath>
</defs>
</svg>
