<svg width="418" height="67" viewBox="0 0 418 67" fill="none" xmlns="http://www.w3.org/2000/svg">
<path d="M264.98 47H248.57C248.217 47 247.967 47.1633 247.82 47.49L243.01 58.39C242.83 58.7967 242.517 59 242.07 59H234.05C233.597 59 233.463 58.7933 233.65 58.38C241.11 42.2 248.583 26.0467 256.07 9.92001C256.22 9.59001 256.45 9.43001 256.68 9.20001C256.716 9.1628 256.761 9.13499 256.81 9.11898C256.86 9.10296 256.912 9.09922 256.964 9.10808C257.015 9.11694 257.063 9.13814 257.104 9.16983C257.146 9.20153 257.178 9.24278 257.2 9.29001L279.89 58.36C280.09 58.7867 279.953 59 279.48 59H271.5C271.073 59 270.773 58.8067 270.6 58.42L265.73 47.49C265.583 47.1633 265.333 47 264.98 47ZM250.82 39.25C250.783 39.3342 250.768 39.4262 250.776 39.5177C250.784 39.6092 250.815 39.6972 250.866 39.7738C250.916 39.8503 250.985 39.913 251.066 39.956C251.148 39.999 251.238 40.021 251.33 40.02L262.3 39.98C262.391 39.9793 262.48 39.9561 262.56 39.9124C262.64 39.8687 262.708 39.8059 262.757 39.7296C262.807 39.6533 262.837 39.5658 262.844 39.4752C262.852 39.3845 262.836 39.2934 262.8 39.21L257.28 26.48C257.239 26.3784 257.168 26.2913 257.078 26.23C256.987 26.1687 256.88 26.1359 256.77 26.1359C256.66 26.1359 256.553 26.1687 256.462 26.23C256.372 26.2913 256.301 26.3784 256.26 26.48L250.82 39.25Z" fill="#38BD74"/>
<path d="M164.5 43H144.43C144.353 42.9986 144.277 43.0209 144.213 43.0638C144.148 43.1066 144.098 43.1681 144.07 43.24L137.74 58.76C137.712 58.8319 137.662 58.8934 137.597 58.9362C137.533 58.9791 137.457 59.0014 137.38 59H134.04C133.977 59.0001 133.915 58.9846 133.859 58.9548C133.804 58.9251 133.757 58.882 133.722 58.8294C133.687 58.7768 133.666 58.7165 133.661 58.6537C133.655 58.591 133.665 58.5279 133.69 58.47L154.12 10.43C154.149 10.3612 154.198 10.3025 154.26 10.2613C154.322 10.22 154.395 10.198 154.47 10.198C154.545 10.198 154.618 10.22 154.68 10.2613C154.742 10.3025 154.791 10.3612 154.82 10.43L175.21 58.46C175.233 58.5174 175.241 58.5794 175.235 58.6408C175.228 58.7022 175.206 58.761 175.172 58.8122C175.138 58.8634 175.091 58.9054 175.037 58.9347C174.982 58.9639 174.922 58.9795 174.86 58.98L171.49 59.01C171.413 59.0114 171.337 58.9891 171.273 58.9462C171.208 58.9034 171.158 58.8419 171.13 58.77L164.86 43.24C164.832 43.1681 164.782 43.1066 164.718 43.0638C164.653 43.0209 164.577 42.9986 164.5 43ZM145.96 38.74C145.927 38.8198 145.914 38.9066 145.923 38.9927C145.931 39.0787 145.961 39.1612 146.01 39.2327C146.059 39.3041 146.124 39.3624 146.201 39.4021C146.278 39.4418 146.364 39.4617 146.45 39.46L162.48 39.4C162.566 39.4 162.65 39.3789 162.725 39.3385C162.801 39.2981 162.865 39.2397 162.913 39.1684C162.96 39.0972 162.989 39.0154 162.998 38.9302C163.006 38.8449 162.993 38.759 162.96 38.68L154.88 19.32C154.842 19.2221 154.776 19.138 154.689 19.0786C154.602 19.0193 154.5 18.9875 154.395 18.9875C154.29 18.9875 154.188 19.0193 154.101 19.0786C154.014 19.138 153.948 19.2221 153.91 19.32L145.96 38.74Z" fill="#FC4947"/>
<path d="M408.59 35.28C408.59 41.8998 405.96 48.2485 401.279 52.9294C396.598 57.6103 390.25 60.24 383.63 60.24C377.01 60.24 370.662 57.6103 365.981 52.9294C361.3 48.2485 358.67 41.8998 358.67 35.28C358.67 28.6602 361.3 22.3115 365.981 17.6306C370.662 12.9497 377.01 10.32 383.63 10.32C390.25 10.32 396.598 12.9497 401.279 17.6306C405.96 22.3115 408.59 28.6602 408.59 35.28ZM383.264 52.1863C385.382 52.2307 387.488 51.8352 389.463 51.0226C391.437 50.2099 393.241 48.996 394.772 47.45C396.302 45.904 397.529 44.0564 398.383 42.0125C399.236 39.9686 399.7 37.7685 399.746 35.5378C399.793 33.3071 399.422 31.0896 398.655 29.0117C397.888 26.9339 396.739 25.0364 395.275 23.4277C393.81 21.819 392.059 20.5306 390.12 19.636C388.181 18.7413 386.094 18.2581 383.976 18.2137C381.858 18.1693 379.752 18.5648 377.777 19.3774C375.803 20.1901 373.999 21.4041 372.468 22.95C370.938 24.496 369.711 26.3436 368.857 28.3875C368.004 30.4314 367.54 32.6315 367.493 34.8622C367.447 37.0929 367.818 39.3105 368.585 41.3883C369.352 43.4662 370.501 45.3636 371.965 46.9723C373.43 48.581 375.181 49.8694 377.12 50.764C379.059 51.6587 381.146 52.142 383.264 52.1863Z" fill="#38BD74"/>
<path d="M23.6 16.94C10.61 24.02 10.09 44.01 21.84 52.35C33.96 60.95 48.89 53.99 51.45 39.58C51.5167 39.1933 51.3533 39 50.96 39H35.12C34.7533 39 34.5633 38.8133 34.55 38.44L34.48 35.64C34.4667 35.2067 34.6767 34.99 35.11 34.99L54.96 35.06C55.2133 35.06 55.3433 35.1867 55.35 35.44C55.82 54.45 36.97 66.04 20.48 55.93C3.20999 45.35 6.67999 15.97 27.75 11.58C37.97 9.45333 46.1667 12.3567 52.34 20.29C52.62 20.65 52.59 20.9833 52.25 21.29L50.53 22.81C50.21 23.0967 49.9267 23.0667 49.68 22.72C43.72 14.54 32.5 12.09 23.6 16.94Z" fill="#FC4947"/>
<path d="M68.52 45.24C68.55 57.44 85.96 60.34 90.31 49.61C91.0833 47.7033 91.4767 44.3667 91.49 39.6C91.5167 30.3933 91.5167 21.1767 91.49 11.95C91.49 11.47 91.73 11.2367 92.21 11.25L94.65 11.3C95.07 11.3067 95.2767 11.52 95.27 11.94C95.2233 20.5133 95.2267 29.0767 95.28 37.63C95.3133 43.47 94.8633 47.67 93.93 50.23C89.21 63.13 69.8 62.76 65.58 49.58C65.08 48.0067 64.8167 45.5433 64.79 42.19C64.7167 32.11 64.71 22.0233 64.77 11.93C64.7767 11.4767 65.0067 11.25 65.46 11.25H67.8C68.2667 11.25 68.5 11.4833 68.5 11.95C68.4867 23.0567 68.4933 34.1533 68.52 45.24Z" fill="#FC4947"/>
<path d="M110.62 55.5H129.12C129.287 55.5 129.447 55.5664 129.565 55.6845C129.684 55.8027 129.75 55.9629 129.75 56.13V58.37C129.75 58.5371 129.684 58.6973 129.565 58.8155C129.447 58.9336 129.287 59 129.12 59H106.86C106.693 59 106.533 58.9336 106.415 58.8155C106.296 58.6973 106.23 58.5371 106.23 58.37L106.26 11.9C106.261 11.8173 106.279 11.7356 106.312 11.6597C106.345 11.5837 106.392 11.515 106.452 11.4574C106.511 11.3999 106.581 11.3546 106.658 11.3241C106.735 11.2937 106.817 11.2787 106.9 11.28L109.39 11.34C109.555 11.3426 109.713 11.4102 109.829 11.528C109.945 11.6459 110.01 11.8046 110.01 11.97L109.99 54.87C109.99 54.9527 110.006 55.0347 110.038 55.1111C110.07 55.1875 110.116 55.257 110.175 55.3155C110.233 55.374 110.302 55.4204 110.379 55.452C110.455 55.4837 110.537 55.5 110.62 55.5Z" fill="#FC4947"/>
<path d="M198.74 33.19C205.57 34.85 209.53 39.98 208.7 47.13C207.17 60.35 192.76 59.43 182.61 58.91C182.203 58.89 182 58.6767 182 58.27V12.02C182 11.7067 182.157 11.5333 182.47 11.5C188.91 10.8733 194.18 11.1033 198.28 12.19C208.49 14.89 209.27 29.13 198.71 32.6C198.03 32.8267 198.04 33.0233 198.74 33.19ZM185.77 15.54L185.71 30.52C185.71 30.6791 185.773 30.8317 185.886 30.9443C185.998 31.0568 186.151 31.12 186.31 31.12L193.9 31.15C195.028 31.1543 196.146 30.9593 197.19 30.5762C198.234 30.193 199.183 29.6292 199.984 28.9169C200.784 28.2047 201.42 27.3579 201.856 26.425C202.291 25.4921 202.516 24.4914 202.52 23.48V22.7C202.527 20.6583 201.629 18.697 200.024 17.2475C198.419 15.7979 196.238 14.9787 193.96 14.97L186.37 14.94C186.211 14.94 186.058 15.0032 185.946 15.1157C185.833 15.2283 185.77 15.3809 185.77 15.54ZM185.74 35.37V54.97C185.74 55.1795 185.823 55.3805 185.971 55.5286C186.12 55.6768 186.32 55.76 186.53 55.76H193.89C196.842 55.76 199.673 54.7286 201.76 52.8926C203.847 51.0566 205.02 48.5665 205.02 45.97V44.37C205.02 41.7735 203.847 39.2834 201.76 37.4474C199.673 35.6114 196.842 34.58 193.89 34.58H186.53C186.32 34.58 186.12 34.6632 185.971 34.8114C185.823 34.9595 185.74 35.1605 185.74 35.37Z" fill="#FC4947"/>
<path d="M286.05 11.25H293.03C293.51 11.25 293.75 11.49 293.75 11.97C293.75 22.03 293.76 32.0433 293.78 42.01C293.787 45.0633 294.157 47.2767 294.89 48.65C298.04 54.5 308.26 53.89 310.85 48.25C311.59 46.63 311.967 43.54 311.98 38.98C312.013 30 312.017 21.0067 311.99 12C311.99 11.8011 312.068 11.6103 312.207 11.4697C312.346 11.329 312.534 11.25 312.73 11.25H319.74C320.073 11.25 320.24 11.42 320.24 11.76C320.26 21.3267 320.263 30.8867 320.25 40.44C320.243 45.1733 319.76 48.6433 318.8 50.85C313.43 63.19 292.8 63.48 286.93 51.11C286.03 49.2033 285.567 46.44 285.54 42.82C285.46 32.5333 285.38 22.2633 285.3 12.01C285.3 11.5033 285.55 11.25 286.05 11.25Z" fill="#38BD74"/>
<path d="M326.42 11.25H358.59C358.765 11.25 358.933 11.3195 359.057 11.4433C359.18 11.5671 359.25 11.735 359.25 11.91V18.34C359.25 18.515 359.18 18.6829 359.057 18.8067C358.933 18.9305 358.765 19 358.59 19H347.41C347.235 19 347.067 19.0695 346.943 19.1933C346.82 19.3171 346.75 19.485 346.75 19.66V58.34C346.75 58.515 346.68 58.6829 346.557 58.8067C346.433 58.9305 346.265 59 346.09 59H338.91C338.735 59 338.567 58.9305 338.443 58.8067C338.32 58.6829 338.25 58.515 338.25 58.34V19.66C338.25 19.5733 338.233 19.4875 338.2 19.4074C338.167 19.3274 338.118 19.2546 338.057 19.1933C337.995 19.132 337.923 19.0834 337.843 19.0502C337.762 19.0171 337.677 19 337.59 19H326.4C326.225 19 326.057 18.9305 325.933 18.8067C325.81 18.6829 325.74 18.515 325.74 18.34L325.76 11.91C325.76 11.735 325.83 11.5671 325.953 11.4433C326.077 11.3195 326.245 11.25 326.42 11.25Z" fill="#38BD74"/>
</svg>
