<?xml version="1.0" encoding="UTF-8" standalone="no"?>
<!DOCTYPE svg PUBLIC "-//W3C//DTD SVG 1.1//EN" "http://www.w3.org/Graphics/SVG/1.1/DTD/svg11.dtd">
<svg xmlns="http://www.w3.org/2000/svg" version="1.1" viewBox="0.00 0.00 418.00 67.00">
<path fill="#48df61" d="
  M 264.98 47.00
  L 248.57 47.00
  Q 248.04 47.00 247.82 47.49
  L 243.01 58.39
  Q 242.74 59.00 242.07 59.00
  L 234.05 59.00
  Q 233.37 59.00 233.65 58.38
  Q 244.84 34.11 256.07 9.92
  C 256.22 9.59 256.45 9.43 256.68 9.20
  A 0.32 0.32 0.0 0 1 257.20 9.29
  L 279.89 58.36
  Q 280.19 59.00 279.48 59.00
  L 271.50 59.00
  Q 270.86 59.00 270.60 58.42
  L 265.73 47.49
  Q 265.51 47.00 264.98 47.00
  Z
  M 250.82 39.25
  A 0.55 0.55 0.0 0 0 251.33 40.02
  L 262.30 39.98
  A 0.55 0.55 0.0 0 0 262.80 39.21
  L 257.28 26.48
  A 0.55 0.55 0.0 0 0 256.26 26.48
  L 250.82 39.25
  Z"
/>
<path fill="#fc4947" d="
  M 164.50 43.00
  L 144.43 43.00
  A 0.38 0.38 0.0 0 0 144.07 43.24
  L 137.74 58.76
  A 0.38 0.38 0.0 0 1 137.38 59.00
  L 134.04 59.00
  A 0.38 0.38 0.0 0 1 133.69 58.47
  L 154.12 10.43
  A 0.38 0.38 0.0 0 1 154.82 10.43
  L 175.21 58.46
  A 0.38 0.38 0.0 0 1 174.86 58.98
  L 171.49 59.01
  A 0.38 0.38 0.0 0 1 171.13 58.77
  L 164.86 43.24
  A 0.38 0.38 0.0 0 0 164.50 43.00
  Z
  M 145.96 38.74
  A 0.52 0.52 0.0 0 0 146.45 39.46
  L 162.48 39.40
  A 0.52 0.52 0.0 0 0 162.96 38.68
  L 154.88 19.32
  A 0.52 0.52 0.0 0 0 153.91 19.32
  L 145.96 38.74
  Z"
/>
<path fill="#48df61" d="
  M 408.59 35.28
  A 24.96 24.96 0.0 0 1 383.63 60.24
  A 24.96 24.96 0.0 0 1 358.67 35.28
  A 24.96 24.96 0.0 0 1 383.63 10.32
  A 24.96 24.96 0.0 0 1 408.59 35.28
  Z
  M 383.2642 52.1863
  A 16.99 16.13 91.2 0 0 399.7465 35.5378
  A 16.99 16.13 91.2 0 0 383.9758 18.2137
  A 16.99 16.13 91.2 0 0 367.4935 34.8622
  A 16.99 16.13 91.2 0 0 383.2642 52.1863
  Z"
/>
<path fill="#fc4947" d="
  M 23.60 16.94
  C 10.61 24.02 10.09 44.01 21.84 52.35
  C 33.96 60.95 48.89 53.99 51.45 39.58
  Q 51.55 39.00 50.96 39.00
  L 35.12 39.00
  Q 34.57 39.00 34.55 38.44
  L 34.48 35.64
  Q 34.46 34.99 35.11 34.99
  L 54.96 35.06
  Q 55.34 35.06 55.35 35.44
  C 55.82 54.45 36.97 66.04 20.48 55.93
  C 3.21 45.35 6.68 15.97 27.75 11.58
  Q 43.08 8.39 52.34 20.29
  Q 52.76 20.83 52.25 21.29
  L 50.53 22.81
  Q 50.05 23.24 49.68 22.72
  C 43.72 14.54 32.50 12.09 23.60 16.94
  Z"
/>
<path fill="#fc4947" d="
  M 68.52 45.24
  C 68.55 57.44 85.96 60.34 90.31 49.61
  Q 91.47 46.75 91.49 39.60
  Q 91.53 25.79 91.49 11.95
  Q 91.49 11.23 92.21 11.25
  L 94.65 11.30
  Q 95.28 11.31 95.27 11.94
  Q 95.20 24.80 95.28 37.63
  Q 95.33 46.39 93.93 50.23
  C 89.21 63.13 69.80 62.76 65.58 49.58
  Q 64.83 47.22 64.79 42.19
  Q 64.68 27.07 64.77 11.93
  Q 64.78 11.25 65.46 11.25
  L 67.80 11.25
  Q 68.50 11.25 68.50 11.95
  Q 68.48 28.61 68.52 45.24
  Z"
/>
<path fill="#fc4947" d="
  M 110.62 55.50
  L 129.12 55.50
  A 0.63 0.63 0.0 0 1 129.75 56.13
  L 129.75 58.37
  A 0.63 0.63 0.0 0 1 129.12 59.00
  L 106.86 59.00
  A 0.63 0.63 0.0 0 1 106.23 58.37
  L 106.26 11.90
  A 0.63 0.63 0.0 0 1 106.90 11.28
  L 109.39 11.34
  A 0.63 0.63 0.0 0 1 110.01 11.97
  L 109.99 54.87
  A 0.63 0.63 0.0 0 0 110.62 55.50
  Z"
/>
<path fill="#fc4947" d="
  M 198.74 33.19
  C 205.57 34.85 209.53 39.98 208.70 47.13
  C 207.17 60.35 192.76 59.43 182.61 58.91
  Q 182.00 58.88 182.00 58.27
  L 182.00 12.02
  Q 182.00 11.55 182.47 11.50
  Q 192.13 10.56 198.28 12.19
  C 208.49 14.89 209.27 29.13 198.71 32.60
  Q 197.69 32.94 198.74 33.19
  Z
  M 185.77 15.54
  L 185.71 30.52
  A 0.60 0.60 0.0 0 0 186.31 31.12
  L 193.90 31.15
  A 8.59 7.70 0.2 0 0 202.52 23.48
  L 202.52 22.70
  A 8.59 7.70 0.2 0 0 193.96 14.97
  L 186.37 14.94
  A 0.60 0.60 0.0 0 0 185.77 15.54
  Z
  M 185.74 35.37
  L 185.74 54.97
  A 0.79 0.79 0.0 0 0 186.53 55.76
  L 193.89 55.76
  A 11.13 9.79 0.0 0 0 205.02 45.97
  L 205.02 44.37
  A 11.13 9.79 -0.0 0 0 193.89 34.58
  L 186.53 34.58
  A 0.79 0.79 0.0 0 0 185.74 35.37
  Z"
/>
<path fill="#48df61" d="
  M 286.05 11.25
  L 293.03 11.25
  Q 293.75 11.25 293.75 11.97
  Q 293.75 27.06 293.78 42.01
  Q 293.79 46.59 294.89 48.65
  C 298.04 54.50 308.26 53.89 310.85 48.25
  Q 311.96 45.82 311.98 38.98
  Q 312.03 25.51 311.99 12.00
  A 0.75 0.74 90.0 0 1 312.73 11.25
  L 319.74 11.25
  Q 320.24 11.25 320.24 11.76
  Q 320.27 26.11 320.25 40.44
  Q 320.24 47.54 318.80 50.85
  C 313.43 63.19 292.80 63.48 286.93 51.11
  Q 285.58 48.25 285.54 42.82
  Q 285.42 27.39 285.30 12.01
  Q 285.30 11.25 286.05 11.25
  Z"
/>
<path fill="#48df61" d="
  M 326.42 11.25
  L 358.59 11.25
  A 0.66 0.66 0.0 0 1 359.25 11.91
  L 359.25 18.34
  A 0.66 0.66 0.0 0 1 358.59 19.00
  L 347.41 19.00
  A 0.66 0.66 0.0 0 0 346.75 19.66
  L 346.75 58.34
  A 0.66 0.66 0.0 0 1 346.09 59.00
  L 338.91 59.00
  A 0.66 0.66 0.0 0 1 338.25 58.34
  L 338.25 19.66
  A 0.66 0.66 0.0 0 0 337.59 19.00
  L 326.40 19.00
  A 0.66 0.66 0.0 0 1 325.74 18.34
  L 325.76 11.91
  A 0.66 0.66 0.0 0 1 326.42 11.25
  Z"
/>
</svg>
